<svg xmlns="http://www.w3.org/2000/svg" width="60" height="60" viewBox="0 0 60 60" xmlns:xlink="http://www.w3.org/1999/xlink">
  <defs>
    <circle id="a" cx="26" cy="26" r="26"/>
    <filter id="b" width="134.6%" height="134.6%" x="-17.3%" y="-17.3%" filterUnits="objectBoundingBox">
      <feOffset in="SourceAlpha" result="shadowOffsetOuter1"/>
      <feGaussianBlur stdDeviation="3" in="shadowOffsetOuter1" result="shadowBlurOuter1"/>
      <feColorMatrix values="0 0 0 0 0 0 0 0 0 0 0 0 0 0 0 0 0 0 0.154098732 0" in="shadowBlurOuter1"/>
    </filter>
  </defs>
  <g fill="none" fill-rule="evenodd" transform="translate(4 4)">
    <use fill="black" filter="url(#b)" xlink:href="#a"/>
    <use fill="#FFFFFF" xlink:href="#a"/>
    <g transform="translate(3.333 3.333)">
      <circle cx="23" cy="23" r="23" fill="#0B266E"/>
      <path fill="#FEBE17" d="M33.0904982,22.2261247 L33.0904982,9.69405099 C33.0904982,9.09469541 32.9581822,8.96127721 32.3632732,8.96127721 C25.9823612,8.96025092 19.6014492,8.96025092 13.2205371,8.96127721 C12.5979341,8.96127721 12.4717723,9.08853765 12.4717723,9.71662946 C12.4707466,18.0408985 12.4707466,26.3672202 12.4717723,34.6925156 C12.4717723,35.3195811 12.5979341,35.4468416 13.2205371,35.4468416 C19.5860636,35.4478679 25.9526157,35.4478679 32.3191679,35.4468416 C32.9756192,35.4468416 33.0904982,35.3318967 33.0904982,34.6699371 L33.0904982,22.2261247 Z M35.3819236,22.2487032 L35.3819236,36.0677493 C35.3819236,36.9842297 35.0424152,37.3270118 34.1264605,37.3270118 C26.5629103,37.3280381 18.9983345,37.3280381 11.4347844,37.3270118 C10.5188296,37.3270118 10.1803469,36.9842297 10.1803469,36.066723 L10.1803469,8.34036946 C10.1803469,7.42388909 10.5208811,7.08110695 11.4347844,7.08110695 C18.9850003,7.08008066 26.5331649,7.08008066 34.0833808,7.08110695 C35.0598522,7.08110695 35.3819236,7.40644209 35.3819236,8.38552639 L35.3819236,22.2487032 Z"/>
      <path fill="#FE5A00" d="M13.5465062,22.1965674 L13.5465062,33.9301846 C13.5465062,34.7029838 13.5762517,34.7327463 14.3414278,34.7327463 L31.2645378,34.7327463 C31.9999684,34.7327463 32.0143283,34.7173519 32.0143283,33.9886833 C32.015354,26.1519038 32.015354,18.3151243 32.015354,10.479371 C32.015354,9.70657178 31.9856086,9.67578296 31.2204325,9.67578296 L14.2532171,9.67578296 C13.5772774,9.67578296 13.5465062,9.70657178 13.5465062,10.374689 L13.5465062,22.1965674 Z M33.0902931,22.22633 L33.0902931,34.6691161 C33.0902931,35.3321019 32.9754141,35.4470468 32.3189628,35.4470468 C25.9524106,35.4480731 19.5868842,35.4480731 13.220332,35.4470468 C12.5977289,35.4470468 12.4715672,35.3197864 12.4715672,34.6927209 L12.4715672,9.71580842 C12.4715672,9.0887429 12.5977289,8.96148247 13.220332,8.96148247 C19.601244,8.96045618 25.9831818,8.96045618 32.3630681,8.96148247 C32.9579771,8.96148247 33.0902931,9.09490067 33.0902931,9.69425625 L33.0902931,22.22633 Z"/>
      <path fill="#EF1F12" d="M31.3415683,22.2210959 C31.3415683,18.3550471 31.3364397,14.4900246 31.3487482,10.6250021 C31.3497739,10.2411682 31.2810517,10.0933819 30.8471784,10.0944082 C25.4735088,10.1108289 20.100865,10.1098026 14.7271955,10.0964608 C14.3158877,10.0944082 14.2112658,10.2073005 14.2122915,10.6126866 C14.2235742,18.3437579 14.2246,26.0748291 14.2102401,33.8059004 C14.2102401,34.2318123 14.3456332,34.3118632 14.7384783,34.3118632 C20.0957365,34.2995477 25.4540204,34.2974951 30.8123044,34.3128895 C31.2400235,34.3139158 31.352851,34.1989709 31.3507996,33.773059 C31.3343883,29.9224046 31.3415683,26.0717502 31.3415683,22.2210959 L31.3415683,22.2210959 Z M13.5466088,22.1964648 L13.5466088,10.3756127 C13.5466088,9.70646915 13.57738,9.67568033 14.2533197,9.67568033 L31.2205351,9.67568033 C31.9857111,9.67568033 32.0154566,9.70646915 32.0154566,10.4792684 C32.0154566,18.3150216 32.0154566,26.1528274 32.0144309,33.9885807 C32.0144309,34.7172493 32.000071,34.7326437 31.2646404,34.7326437 L14.3415303,34.7326437 C13.5763543,34.7326437 13.5466088,34.7028812 13.5466088,33.9300819 L13.5466088,22.1964648 Z"/>
      <path fill="#0B266E" d="M29.8450644,29.3675902 C29.8450644,28.7477087 29.8307045,28.1257747 29.8512186,27.5058932 C29.86045,27.2103206 29.7968562,27.068692 29.4676049,27.1015334 C29.1896388,27.1292434 28.9044927,27.1292434 28.6275523,27.1015334 C28.3147122,27.0707446 28.2644527,27.208268 28.2685555,27.4812622 C28.2829154,28.4860038 28.2675298,29.4907454 28.2777869,30.4954871 C28.2818897,30.8752158 28.1116226,31.3709157 28.3526633,31.6018318 C28.5916526,31.829669 29.0860425,31.6367258 29.4645278,31.675725 C29.790702,31.7106189 29.86045,31.5700167 29.8512186,31.2723915 C29.8307045,30.6381419 29.8450644,30.002866 29.8450644,29.3675902 M20.6034606,29.3891423 C20.6034606,30.0100501 20.6208976,30.6319841 20.5952549,31.2528919 C20.5829465,31.5761745 20.6598744,31.6962508 21.0065627,31.6798301 C21.6712197,31.6510939 22.3389538,31.6541728 23.0036107,31.6788038 C23.357479,31.6931719 23.489795,31.6418573 23.4251756,31.2303134 C23.3000395,30.446225 23.3308107,30.4277517 22.5769174,30.4308306 C22.292797,30.4318569 22.1881751,30.3569374 22.1984322,30.0603385 C22.219972,29.4835614 22.2158691,28.905758 22.2015093,28.3279545 C22.1922779,27.9338577 22.379982,27.3796591 22.1204786,27.1836369 C21.8527695,26.9824834 21.3286341,27.131296 20.9193778,27.1025597 C20.6547458,27.0840864 20.5942292,27.1938999 20.598332,27.4340526 C20.6116662,28.0857492 20.6034606,28.7374458 20.6034606,29.3891423 M17.9950923,27.1076912 C17.7294346,27.1076912 17.463777,27.1128227 17.1970936,27.1056386 C17.0452892,27.1025597 16.95913,27.148743 16.9119476,27.3108974 C16.513974,28.6830522 16.106769,30.0531544 15.7036668,31.424283 C15.6759728,31.518702 15.6216104,31.6572517 15.7836719,31.6623831 C16.2257508,31.6767512 16.6688554,31.6685409 17.1119601,31.6603305 C17.1591425,31.6593043 17.234019,31.6110684 17.2463275,31.5700167 C17.3068441,31.361679 17.2986384,31.1163948 17.6391726,31.1615518 C17.8566221,31.190288 18.0812515,31.1687358 18.3028038,31.1687358 C18.3910145,31.1687358 18.4505054,31.2210768 18.4546082,31.2970225 C18.4751223,31.7588548 18.8095022,31.6705935 19.0946482,31.6716198 C19.3449203,31.6726461 19.5972438,31.6572517 19.8475158,31.675725 C20.1593302,31.6972771 20.2629264,31.6398047 20.153176,31.2857333 C19.8146933,30.201967 19.5203159,29.1058853 19.2064501,28.0159612 C18.9448953,27.1076912 18.9428439,27.1076912 17.9950923,27.1076912 M25.2129797,27.1076912 C24.8232117,27.1076912 24.4970375,27.1169279 24.1729147,27.1046123 C23.9780307,27.0974283 23.9185398,27.1723477 23.9185398,27.3611858 C23.924694,28.7199988 23.9236683,30.0788118 23.9195655,31.4386511 C23.9195655,31.605937 23.9759793,31.6767512 24.1493234,31.6726461 C24.9462964,31.6551991 25.7453207,31.7239608 26.5371651,31.613121 C27.066429,31.5392279 27.4336315,31.2416027 27.5731274,30.7140877 C27.7946797,29.8704741 27.7885255,29.0196766 27.6018471,28.1719579 C27.4695312,27.5684971 27.0879688,27.2493198 26.4725457,27.1579796 C26.0284154,27.0922968 25.5883878,27.1271908 25.2129797,27.1076912 M29.9773804,18.0588587 C29.9773804,15.8235908 29.9691747,13.5872966 29.985586,11.3510023 C29.9886631,10.9661422 29.9148123,10.8234873 29.4850419,10.8255399 C25.0160443,10.8429869 20.5470468,10.839908 16.0770235,10.8286188 C15.7046926,10.8265662 15.5723766,10.8943016 15.574428,11.3068717 C15.5908393,15.792802 15.5887879,20.2797585 15.5775051,24.766715 C15.5764794,25.1197601 15.6462274,25.2470205 16.0329182,25.2449679 C20.5306355,25.2326524 25.0304042,25.2326524 29.5291472,25.2449679 C29.9137866,25.2470205 29.9876374,25.1207864 29.985586,24.766715 C29.9691747,22.5304208 29.9773804,20.2951529 29.9773804,18.0588587 M31.3415683,22.2215064 C31.3415683,26.0721608 31.3343883,29.9228151 31.3507996,33.7734695 C31.352851,34.1993814 31.2400235,34.3133 30.8123044,34.3122738 C25.4540204,34.2979056 20.0957365,34.2999582 14.7374526,34.3112475 C14.3456332,34.3112475 14.2102401,34.2311965 14.2102401,33.8052846 C14.2246,26.0752396 14.2235742,18.3441684 14.2122915,10.6130971 C14.2112658,10.207711 14.3158877,10.0948187 14.7271955,10.095845 C20.100865,10.1102131 25.4735088,10.1112394 30.8471784,10.0948187 C31.2810517,10.0927661 31.3497739,10.2415787 31.3487482,10.6243863 C31.3364397,14.4904351 31.3415683,18.3554576 31.3415683,22.2215064"/>
      <path fill="#33ACBE" d="M16.2745744,18.050751 C16.2745744,20.1679951 16.2807286,22.2852392 16.2694458,24.4035096 C16.2673944,24.7278185 16.3248339,24.869447 16.700242,24.8684207 C20.7548547,24.8540526 24.8094673,24.8561052 28.8640799,24.8663682 C29.1912799,24.8673945 29.2948761,24.7832384 29.2938504,24.4445614 C29.2835934,20.1946787 29.2825677,15.9458224 29.2948761,11.6959397 C29.2959018,11.3326317 29.1779457,11.2546334 28.839463,11.2556597 C24.800236,11.2659226 20.7599832,11.2669489 16.7197304,11.2556597 C16.3761192,11.2546334 16.2643173,11.3398157 16.2663687,11.6990186 C16.28278,13.8162627 16.2745744,15.9335068 16.2745744,18.050751 M29.9769701,18.0589613 C29.9769701,20.2952555 29.9697901,22.5305234 29.9851757,24.7657914 C29.9872271,25.120889 29.9144021,25.2471232 29.5297626,25.2450706 C25.0299939,25.232755 20.5312509,25.232755 16.0325079,25.2450706 C15.6468428,25.2471232 15.5760691,25.1198627 15.5770948,24.7657914 C15.5883776,20.2798611 15.590429,15.7929046 15.5740177,11.3069743 C15.572992,10.8944042 15.705308,10.8266688 16.077639,10.8276951 C20.5466365,10.8400107 25.015634,10.8430895 29.4856573,10.8246163 C29.9154278,10.82359 29.9882528,10.9662448 29.9851757,11.351105 C29.9697901,13.5873992 29.9769701,15.8236934 29.9769701,18.0589613"/>
      <path fill="#FEFEFE" d="M25.4888944 29.3735427C25.4888944 29.7142722 25.4858173 30.0550018 25.4909458 30.3957313 25.4929972 30.4901503 25.4458148 30.6225422 25.5924906 30.6523048 25.6930098 30.6738569 25.7986574 30.6533311 25.886868 30.5855957 26.0120041 30.4880978 26.0612379 30.3567321 26.0858548 30.2048407 26.1586799 29.762508 26.1607313 29.3191491 26.1207288 28.8768165 26.1053432 28.6869521 26.1012404 28.4940089 25.9986699 28.3185126 25.9125107 28.1707263 25.7781433 28.1112013 25.6283903 28.1245431 25.4222236 28.1440427 25.4950487 28.3236441 25.4919715 28.4416679 25.4827402 28.7526349 25.4888944 29.0625757 25.4888944 29.3735427M25.2129797 27.1074859C25.5883878 27.1280118 26.0284154 27.0920915 26.4725457 27.1577743 27.0889945 27.2491145 27.4695312 27.5682919 27.6028728 28.1717526 27.7885255 29.0194713 27.7946797 29.8702689 27.5731274 30.7138824 27.4336315 31.2413974 27.066429 31.5390226 26.5371651 31.6139421 25.7453207 31.7237555 24.9462964 31.6549938 24.1493234 31.6724408 23.9759793 31.676546 23.9195655 31.6057317 23.9195655 31.4384458 23.9236683 30.0786065 23.924694 28.7197935 23.9185398 27.3609805 23.9185398 27.1721425 23.9780307 27.097223 24.1729147 27.1044071 24.4970375 27.1167226 24.8232117 27.1074859 25.2129797 27.1074859M17.9368322 28.6489793C17.9081125 28.6489793 17.878367 28.6500055 17.8496473 28.6510318 17.7624623 29.0902856 17.6639946 29.5274868 17.5911695 29.9687931 17.5419357 30.2715498 17.7932335 30.1473682 17.9183695 30.1524997 18.0332485 30.1586574 18.2578779 30.2520502 18.2004384 29.9667405 18.1122278 29.5264605 18.0250428 29.088233 17.9368322 28.6489793M17.9952974 27.1074859C18.943049 27.1074859 18.9440747 27.1074859 19.2066552 28.015756 19.520521 29.10568 19.8148984 30.2027881 20.1533811 31.285528 20.2631316 31.6395994 20.1595354 31.6970719 19.847721 31.6755197 19.5974489 31.6580727 19.3451254 31.6724408 19.0938277 31.6714145 18.8097073 31.6703882 18.4743017 31.7586495 18.4537876 31.2968173 18.4507105 31.2208715 18.3901939 31.1685306 18.3019833 31.1685306 18.0814566 31.1685306 17.8558015 31.191109 17.638352 31.1613465 17.2988436 31.1161896 17.3070492 31.3625001 17.2465326 31.5698114 17.2342241 31.6108632 17.1593477 31.6601253 17.1121652 31.6611516 16.6690606 31.6683356 16.2259559 31.676546 15.7828513 31.6632042 15.6218156 31.6580727 15.6761779 31.5184967 15.703872 31.4240777 16.1069741 30.0529492 16.5141791 28.6828469 16.9121527 27.3106921 16.9593351 27.1485377 17.0444687 27.1023545 17.1972988 27.1054334 17.4639821 27.1126174 17.7296398 27.1074859 17.9952974 27.1074859M20.6032554 29.3886292C20.6032554 28.7369326 20.6114611 28.0852361 20.5991526 27.4345658 20.5940241 27.1933867 20.6545407 27.0845996 20.9191726 27.1020466 21.3294547 27.1318091 21.8535901 26.9819702 22.1202734 27.1841501 22.3797768 27.3801722 22.1920728 27.9333446 22.2013041 28.3284677 22.215664 28.9052448 22.2207925 29.4840745 22.1992527 30.0598254 22.18797 30.3564243 22.2925919 30.43237 22.5767122 30.4313437 23.3306055 30.4282648 23.2998344 30.4457118 23.4249704 31.2308266 23.4895899 31.6413441 23.3572739 31.6926588 23.0034056 31.6782907 22.3387486 31.6536596 21.6720402 31.6505808 21.0073833 31.679317 20.6606949 31.6957377 20.5827413 31.5766876 20.5960755 31.2523788 20.6206924 30.6324973 20.6032554 30.009537 20.6032554 29.3886292M29.8450644 29.3675902C29.8450644 30.002866 29.8307045 30.6381419 29.8512186 31.2723915 29.86045 31.5700167 29.790702 31.7106189 29.4645278 31.675725 29.0860425 31.6367258 28.5916526 31.829669 28.3526633 31.6018318 28.1116226 31.3709157 28.2818897 30.8752158 28.2777869 30.4954871 28.2675298 29.4907454 28.2829154 28.4860038 28.2685555 27.4812622 28.2644527 27.208268 28.3147122 27.0707446 28.6275523 27.1015334 28.9044927 27.1292434 29.1896388 27.1292434 29.4676049 27.1015334 29.7968562 27.068692 29.86045 27.2103206 29.8512186 27.5058932 29.8307045 28.1257747 29.8450644 28.7477087 29.8450644 29.3675902"/>
      <path fill="#0B266E" d="M25.7613217 19.0841262C26.5747059 19.0841262 27.3880902 19.0677055 28.2014744 19.0923366 28.5522656 19.1025995 28.564574 18.9312084 28.5738054 18.6612932 28.5840624 18.3657205 28.4814919 18.283617 28.1942944 18.2866959 26.967551 18.3000377 25.7397819 18.2928537 24.5120128 18.2928537 24.1714787 18.2928537 23.8319702 18.2979851 23.4924618 18.2918274 23.0544857 18.283617 23.1129509 18.664372 23.070897 18.8942618 23.0175603 19.1949659 23.310912 19.0759159 23.453485 19.0779684 24.2227639 19.0913103 24.9920428 19.0841262 25.7613217 19.0841262M25.6238772 20.3290206C26.4813668 20.3290206 27.3388563 20.3136262 28.1963459 20.3362047 28.5399571 20.3454413 28.5676511 20.187392 28.5738054 19.9102927 28.5809853 19.6219042 28.4938004 19.5285114 28.199423 19.5315903 26.824978 19.5449321 25.4495073 19.5367218 24.0740367 19.5367218 23.7642737 19.5367218 23.453485 19.5449321 23.1437221 19.5346692 22.7026688 19.5223537 22.7631854 19.9051613 22.7180544 20.1340248 22.6585635 20.4367814 22.9529409 20.3208102 23.0955139 20.3228628 23.9386436 20.3351784 24.7807476 20.3290206 25.6238772 20.3290206M25.4136077 21.5831516C26.3162282 21.5831516 27.2188488 21.5759676 28.1204437 21.5862305 28.404564 21.5903357 28.5881652 21.581099 28.5799596 21.1993177 28.571754 20.8575619 28.4640549 20.7816162 28.1419835 20.7836688 26.3972589 20.7980369 24.6525344 20.7908528 22.9067842 20.7908528 22.8329334 20.7908528 22.7549798 20.7785373 22.6852318 20.7959843 22.3364921 20.8873244 22.3970087 21.2218962 22.3641861 21.451786 22.333415 21.6714129 22.5847127 21.5759676 22.7077974 21.5780202 23.6093922 21.5872568 24.5120128 21.5831516 25.4136077 21.5831516M21.4051518 11.6239965C21.1169286 11.5531822 20.9948697 11.688653 20.9169161 11.9678049 19.8009488 15.9631667 18.6747245 19.9554496 17.552603 23.9487589 17.3987473 24.4967998 17.4910607 24.5860873 18.05725 24.5101416 18.3567559 24.4701161 18.3270105 24.2258582 18.3782957 24.0472831 19.5055457 20.0560264 20.6225387 16.0616909 21.7528658 12.0714606 21.8523592 11.7184155 21.8082539 11.5531822 21.4051518 11.6239965M19.212194 24.4967998C19.6070905 24.6066132 19.6706843 24.3243824 19.7506893 24.0390727 20.5938189 21.0227952 21.4410514 18.007544 22.2872582 14.9922928 22.5703529 13.9824197 22.8575503 12.9735729 23.1303879 11.9606209 23.1570562 11.8620967 23.3016807 11.7153367 23.098591 11.6260491 22.7477999 11.472105 22.3652118 11.6588905 22.2605899 12.034514 21.1353913 16.0462965 20.0132698 20.058079 18.8778141 24.0667826 18.7803722 24.4116174 18.7957577 24.5830084 19.212194 24.4967998M20.569202 24.4998786C20.8358854 24.5563248 20.9948697 24.473195 21.0769261 24.1765961 22.1990476 20.1514718 23.328349 16.1263474 24.4668818 12.1053283 24.5725294 11.7327836 24.5489382 11.5870499 24.1017307 11.6003917 23.7581195 11.6106547 23.6863201 11.7851246 23.6145207 12.0416981 22.4882964 16.0678487 21.3641235 20.092973 20.2225137 24.1139922 20.1127632 24.5019312 20.249182 24.550167 20.569202 24.4998786M16.2745744 18.0506483C16.2745744 15.9334042 16.28278 13.8161601 16.2663687 11.698916 16.2643173 11.3397131 16.3761192 11.2545307 16.7197304 11.255557 20.7599832 11.2668463 24.800236 11.26582 28.839463 11.2565833 29.1779457 11.255557 29.2959018 11.3325291 29.2948761 11.6958371 29.2825677 15.9457197 29.2835934 20.1956024 29.2938504 24.4444588 29.2948761 24.7831357 29.1912799 24.8672918 28.8640799 24.8662655 24.8094673 24.8570289 20.7548547 24.8549763 16.700242 24.8683181 16.3248339 24.8693444 16.2673944 24.7287422 16.2694458 24.403407 16.2807286 22.2861629 16.2745744 20.1678925 16.2745744 18.0506483M25.4888944 29.3735427C25.4888944 29.0625757 25.4827402 28.7526349 25.4919715 28.4416679 25.4950487 28.3236441 25.4222236 28.1440427 25.6283903 28.1245431 25.7781433 28.1112013 25.9125107 28.1707263 25.9986699 28.3185126 26.1012404 28.4940089 26.1053432 28.6869521 26.1207288 28.8768165 26.1607313 29.3191491 26.1586799 29.762508 26.0858548 30.2048407 26.0612379 30.3567321 26.0120041 30.4880978 25.886868 30.5855957 25.7986574 30.6533311 25.6930098 30.6738569 25.5924906 30.6523048 25.4458148 30.6225422 25.4929972 30.4901503 25.4909458 30.3957313 25.4858173 30.0550018 25.4888944 29.7142722 25.4888944 29.3735427M17.9368322 28.6489793C18.0250428 29.088233 18.1122278 29.5264605 18.2004384 29.9667405 18.2578779 30.2520502 18.0332485 30.1586574 17.9183695 30.1524997 17.7932335 30.1473682 17.5419357 30.2715498 17.5911695 29.9687931 17.6639946 29.5274868 17.7624623 29.0902856 17.8496473 28.6510318 17.878367 28.6500055 17.9081125 28.6489793 17.9368322 28.6489793"/>
      <path fill="#33ACBE" d="M20.5686892 24.4996734C20.2496948 24.5499618 20.1122504 24.501726 20.2230265 24.1137869 21.3646364 20.0927678 22.4888093 16.0676434 23.6140079 12.0414928 23.6858073 11.7849194 23.7576066 11.6104494 24.1012179 11.6001865 24.549451 11.5868447 24.5720165 11.7336047 24.4673946 12.105123 23.3278361 16.1261422 22.1985347 20.1512665 21.0774389 24.1774171 20.9943568 24.474016 20.8363982 24.5561195 20.5686892 24.4996734M19.2123992 24.4966971C18.7959629 24.5829058 18.7805773 24.4115147 18.8780193 24.06668 20.0134749 20.0579764 21.1355964 16.0461939 22.260795 12.0344114 22.365417 11.6587879 22.7469793 11.4720024 23.0987962 11.6259465 23.3018858 11.715234 23.1572614 11.861994 23.130593 11.9605182 22.8577555 12.9734702 22.570558 13.982317 22.2874634 14.9921902 21.4412566 18.0074414 20.5940241 21.0226926 19.7508944 24.0389701 19.6708894 24.3242798 19.6072957 24.6065106 19.2123992 24.4966971M21.4050492 11.624407C21.809177 11.5535927 21.8532824 11.7188261 21.7527632 12.0708448 20.6224361 16.0610752 19.5054432 20.0554107 18.3781931 24.0476936 18.3279336 24.2262687 18.3566533 24.4695003 18.0571474 24.5095258 17.4919839 24.5854715 17.3986447 24.496184 17.5525005 23.9481431 18.6746219 19.9548339 19.8008463 15.9635772 20.9168135 11.9671892 20.9947671 11.6880372 21.116826 11.5535927 21.4050492 11.624407M25.4137102 21.5826385C24.5121154 21.5826385 23.6094948 21.5867437 22.7078999 21.577507 22.5848153 21.5764807 22.3335175 21.6708998 22.3642887 21.4512729 22.3971112 21.2213831 22.3365946 20.8868113 22.6853344 20.7964974 22.7550824 20.7780241 22.833036 20.791366 22.9068867 20.791366 24.652637 20.791366 26.3973615 20.79855 28.1420861 20.7841819 28.4641575 20.781103 28.5718565 20.8570488 28.5800622 21.1988046 28.5882678 21.5816122 28.4046666 21.5908488 28.1205462 21.5867437 27.2189514 21.5754544 26.3163308 21.5826385 25.4137102 21.5826385M25.6240824 20.3288153C24.7809527 20.3288153 23.937823 20.3349731 23.0957191 20.3226576 22.953146 20.320605 22.6577429 20.4365762 22.7182595 20.1348458 22.7633906 19.904956 22.702874 19.5221484 23.1439272 19.5354902 23.4536902 19.5447269 23.7644788 19.5375428 24.0742418 19.5375428 25.4497125 19.5375428 26.8251832 19.5447269 28.1996281 19.531385 28.4940055 19.5283062 28.5811904 19.6216989 28.5740105 19.9100875 28.5678563 20.1871868 28.5401622 20.345236 28.196551 20.3359994 27.3390615 20.3134209 26.4815719 20.3288153 25.6240824 20.3288153M25.7613217 19.0845367C24.9920428 19.0845367 24.2227639 19.0906945 23.453485 19.078379 23.310912 19.0753001 23.0175603 19.1953765 23.070897 18.8946724 23.1129509 18.6637563 23.0544857 18.2830013 23.4924618 18.2912116 23.8319702 18.2973694 24.1714787 18.2922379 24.5120128 18.2922379 25.7397819 18.2922379 26.967551 18.3004483 28.1942944 18.2871064 28.4814919 18.2840276 28.5840624 18.3651048 28.5738054 18.6606774 28.564574 18.9316189 28.5522656 19.1019837 28.2014744 19.0917208 27.3880902 19.068116 26.5747059 19.0845367 25.7613217 19.0845367"/>
    </g>
    <g stroke="#C4CBCF">
      <circle cx="26" cy="26" r="25.5"/>
    </g>
    <g stroke="#FFFFFF" stroke-width="4" transform="translate(.867 .867)">
      <circle cx="25" cy="25" r="23.276"/>
    </g>
  </g>
</svg>
