<svg xmlns="http://www.w3.org/2000/svg" width="144" height="36" viewBox="0 0 144 36">
  <path fill="#EA4C89" d="M43.8634775,14.1098599 C45.5065985,14.1098599 46.8384798,12.7774178 46.8384798,11.1340165 C46.8384798,9.49033479 45.5065985,8.1581731 43.8634775,8.1581731 C42.2203566,8.1581731 40.8884753,9.49033479 40.8884753,11.1340165 C40.8884753,12.7774178 42.2203566,14.1098599 43.8634775,14.1098599 L43.8634775,14.1098599 Z M142.046963,24.2773015 C141.594403,23.959052 141.24503,23.9063375 140.9551,24.5243304 C135.958442,35.3464968 127.538149,29.9460687 128.37457,30.42134 C130.242288,29.5669732 135.154547,25.6274085 134.412058,20.1877249 C133.961181,16.8633492 131.107871,15.3887463 128.079313,15.9167321 C122.792726,16.838394 120.847899,22.5405283 121.837977,27.588779 C122.011262,28.4557636 122.320819,29.1707736 122.630096,29.8712029 C116.655978,34.7293451 114.283547,25.52226 114.014366,24.4219859 C114.003711,24.3631027 118.627162,20.5093392 119.913058,11.3260878 C121.260922,1.70149298 118.190585,-0.0509824052 115.050991,0.00369482686 C109.241184,0.104917805 107.671247,12.2435437 109.780386,22.3602336 C109.603736,22.4062186 108.781615,22.8615818 107.460669,22.9126139 C106.510126,19.9216291 102.44859,17.2999259 101.385608,18.3101929 C98.7252102,20.8374026 102.030799,25.7782616 104.356685,26.165769 C102.959471,34.7714045 94.2214887,32.6401141 95.8480662,21.8586051 C98.6935255,16.5745413 100.857622,8.71756324 100.471517,3.97438346 C100.334684,2.29509144 99.0930899,0.045193444 96.2852037,0.156791077 C90.8844951,0.370452876 90.2973458,12.5124435 90.9304801,21.1301361 C90.8990757,20.9178763 90.5984912,22.177135 88.385325,22.8032594 C87.8618256,19.897515 83.1831369,16.9808352 82.0817412,18.3830959 C80.0199889,21.007603 83.593076,25.6871329 85.2855466,26.0135139 C83.888333,34.6188691 75.1506309,32.4875786 76.7772085,21.7060696 C79.6226677,16.4222862 81.7864841,8.56530818 81.4003787,3.8221284 C81.2635455,2.14255599 80.0222321,-0.107342014 77.2140655,0.00397522292 C71.813357,0.217917418 71.2262076,12.3599081 71.859342,20.9776007 C71.8276572,20.7619761 71.5200627,22.0627334 69.2166091,22.6784832 C69.1395002,18.9085581 64.4437073,17.1799164 63.3156739,18.3828155 C61.3052342,20.5270042 63.7760843,24.9264184 66.061873,26.0135139 C64.6646594,34.6188691 55.9269573,32.4875786 57.5535349,21.7060696 C60.3989941,16.4222862 62.5630909,8.56530818 62.1767051,3.8221284 C62.0401523,2.14255599 60.7985585,-0.107342014 57.9903919,0.00397522292 C52.5899638,0.217917418 52.1553499,12.9703303 52.7884842,21.5877425 C51.0096516,29.2091878 45.0442254,38.7269518 45.8192401,19.6608607 C45.8957882,18.3233715 45.9793462,17.8155743 45.3125644,17.3147869 C44.8128986,16.9255972 43.6767338,17.1129017 43.0556565,17.1283235 C42.3008303,17.1586063 42.111563,17.6002301 41.9447273,18.2678531 C41.5560984,19.9917281 41.4862797,21.6628886 41.4307613,23.9430694 C41.3943098,25.009696 41.308789,25.507399 40.8980088,26.9618134 C40.4877894,28.4159474 38.1473234,31.0738217 36.8659134,30.6293939 C35.0882024,30.0181305 35.6714262,24.9996018 36.0045367,21.5515714 C36.2821288,18.8266825 35.3932733,17.603034 33.1158965,17.1580455 C31.7826132,16.880173 30.972549,16.9227932 29.5840277,16.4850949 C28.2709329,16.0712304 27.9739935,13.587482 25.1733976,14.4152112 C23.641594,14.8683313 24.6263449,18.1139157 24.2581849,20.5194335 C22.4482283,32.3524277 18.6822288,32.6774067 16.935081,26.9292875 C24.8038356,7.65738573 19.2113362,0.0597740392 15.9377122,0.0597740392 C12.528096,0.0597740392 8.63059079,2.40837145 10.281002,17.4353572 C9.47850848,17.2012265 9.23175994,17.0750483 8.35327908,17.0750483 C3.38494126,17.0750483 0,21.0914415 0,26.0460399 C0,31.0006383 3.38522166,35.0173119 8.35355948,35.0173119 C11.2865023,35.0173119 13.345731,33.6834678 14.9052939,31.6200332 C15.9228512,33.0772515 17.1619214,35.0397436 19.4278019,34.9514188 C26.1817019,34.6884073 28.1458763,20.8343183 28.3777638,20.0615467 C29.0997837,20.172864 29.7828285,20.3834414 30.4496103,20.4947586 C31.5605395,20.6615943 31.6412936,21.1012553 31.616058,22.2186336 C31.3216421,31.6410629 33.0603781,34.940203 37.0044291,34.940203 C39.201893,34.940203 41.1604595,32.7811533 42.5097254,31.2372926 C43.5174688,33.3172705 45.1232971,34.876553 47.27758,34.9399226 C52.4977135,35.0697459 54.4963766,26.7495536 54.3141192,27.8445002 C54.1711172,28.7036337 56.0077114,34.8930964 61.3817823,34.9155281 C68.0386652,34.9435677 69.276053,27.6229873 69.4235414,26.3968153 C69.4420475,26.1528708 69.450179,26.1781064 69.4235414,26.3968153 L69.4184942,26.4711203 C71.5318394,26.078005 72.6222996,24.9449245 72.6222996,24.9449245 C72.6222996,24.9449245 74.3192566,35.0293689 80.6051755,34.9158085 C87.1327958,34.7974814 88.3637346,28.1801343 88.5252427,26.8897516 C88.5465528,26.5835591 88.5591706,26.6194498 88.5252427,26.8897516 C88.5243595,26.9023666 88.5235183,26.9149845 88.5227191,26.9276051 C91.0331051,26.0143551 91.6934378,25.0977404 91.6934378,25.0977404 C91.6934378,25.0977404 93.0421428,34.9817016 99.6763137,35.0680636 C105.588184,35.1454529 107.779199,29.0914215 107.792097,26.5574823 C108.789186,26.5681373 110.633631,25.9658466 110.59045,25.9316383 C110.59045,25.9316383 112.755949,34.5734449 118.803251,35.0173119 C121.642541,35.2256461 123.77243,33.4196151 124.986545,32.5958115 C127.839855,34.9065554 137.341075,37.8580044 143.34043,27.6866372 C144.187226,26.2268953 142.366614,24.5024595 142.046963,24.2773015 L142.046963,24.2773015 Z M8.11382084,31.6620926 C5.21508636,31.6620926 3.35634086,28.9817866 3.35634086,26.0917444 C3.35634086,23.2019826 5.0625509,20.5216767 7.96128539,20.5216767 C9.26568787,20.5216767 9.99135287,20.6652394 11.0072278,21.5487674 C11.191448,22.2747128 11.7135455,23.9492381 11.9675843,24.7096722 C12.3079851,25.7272295 12.7128771,26.593373 13.1211337,27.5360645 C12.5379099,29.9539198 10.6258892,31.6620926 8.11382084,31.6620926 L8.11382084,31.6620926 Z M15.1775584,21.6337274 C15.0569881,21.4416561 15.0822238,21.5597029 14.9473533,21.3782866 C14.4160027,19.9328449 13.3919963,16.7066078 13.2733888,13.0421117 C13.1393595,8.89673633 13.8302554,4.03775297 15.8670524,4.03775297 C17.2471618,4.03775297 18.7139136,13.8852627 15.177278,21.6337274 L15.1775584,21.6337274 Z M55.9922896,17.3145065 C55.6653478,14.8545918 55.6482436,3.88830187 58.2808823,4.19028843 C59.7344554,4.77912016 57.3592204,15.1271368 55.9922896,17.3145065 Z M75.2159632,17.3145065 C74.8890214,14.8545918 74.8719172,3.88830187 77.5045559,4.19028843 C78.9581291,4.77912016 76.582894,15.1271368 75.2159632,17.3145065 Z M94.2871014,17.4673224 C93.9598792,15.0071273 93.9430554,4.04083733 96.5754136,4.34282388 C98.0289868,4.93165561 95.6537518,15.2799527 94.2871014,17.4673224 Z M115.341481,3.54846184 C117.748401,3.29890935 117.64914,13.8098361 112.817916,20.4456893 C112.194876,18.0471814 111.239567,4.37198508 115.341481,3.54818145 L115.341481,3.54846184 Z M125.458171,26.165769 C124.685119,22.260693 126.68266,19.6959103 128.741889,19.414673 C129.461666,19.2997106 130.504739,19.7660093 130.712793,20.6377606 C131.054876,22.2806012 130.663163,24.7175233 126.054293,27.8094507 C126.061022,27.8358079 125.630614,27.0355576 125.458451,26.165769 L125.458171,26.165769 Z"/>
</svg>
