<svg xmlns="http://www.w3.org/2000/svg" width="129" height="129" viewBox="0 0 129 129" xmlns:xlink="http://www.w3.org/1999/xlink">
  <defs>
    <polygon id="a" points=".36 .354 128.715 .354 128.715 64.446 128.715 128.537 .36 128.537 .36 .354"/>
  </defs>
  <g fill="none" fill-rule="evenodd">
    <g transform="translate(0 .094)">
      <mask id="b" fill="white">
        <use xlink:href="#a"/>
      </mask>
      <path fill="#C32361" d="M64.5380729,128.537212 C29.1499687,128.537212 0.360125,99.7858896 0.360125,64.4457125 C0.360125,29.1050875 29.1499687,0.353764583 64.5380729,0.353764583 C99.9252812,0.353764583 128.715125,29.1050875 128.715125,64.4457125 C128.715125,99.7858896 99.9252812,128.537212 64.5380729,128.537212" mask="url(#b)"/>
    </g>
    <path fill="#EB4C89" d="M118.661591 73.3131188C116.786164 72.7218687 101.694507 68.227025 84.5169031 70.9723063 91.6862573 90.6488375 94.6044344 106.6744 95.1661219 110.00466 107.464122 101.700285 116.218653 88.5449729 118.661591 73.3131188M85.95055 115.016624C85.1353417 110.213614 81.9524458 93.4745198 74.2563417 73.5019156 74.1358521 73.543124 74.0153625 73.5820927 73.8948729 73.6241969 42.9760812 84.3836031 31.8767062 105.797155 30.8903937 107.810989 40.1846646 115.048874 51.8654354 119.367686 64.5378937 119.367686 72.1309771 119.367686 79.3688625 117.816551 85.95055 115.016624M23.8126385 101.226569C25.0542635 99.1043396 40.0984406 74.2274958 68.3704927 65.1016417 69.0844719 64.8705167 69.8051698 64.6541729 70.5303469 64.4499229 69.1543469 61.3400375 67.6556177 58.2265687 66.0861177 55.1592354 38.7107948 63.3413292 12.146649 62.9995688 9.74850313 62.9502979 9.73148229 63.5061625 9.72028438 64.0633708 9.72028438 64.6228188 9.72028438 78.6833708 15.0572115 91.5215583 23.8126385 101.226569M10.878149 53.4107927C13.3304927 53.4430427 35.914899 53.5411365 61.5563365 46.7408656 52.4734823 30.6163135 42.6775448 17.0596677 41.2325656 15.080324 25.8963469 22.304324 14.4328156 36.4231052 10.878149 53.4107927M51.6919573 11.4004646C53.2072594 13.4268396 63.1631031 26.9664646 72.145624 43.4484542 91.6385094 36.1523396 99.8900302 25.0758083 100.875895 23.6733813 91.1955198 15.096225 78.466176 9.87889167 64.5382073 9.87889167 60.1150302 9.87889167 55.8141344 10.4083292 51.6919573 11.4004646M106.969846 30.004101C105.814669 31.5650906 96.6283458 43.3251427 76.3605646 51.5892052 77.6357833 54.1965281 78.8585958 56.8490906 79.9972 59.518674 80.4007729 60.464674 80.7940438 61.4061948 81.1779083 62.3436844 99.4184188 60.0530385 117.541575 63.7241635 119.348919 64.1057885 119.227981 51.1847365 114.604585 39.3198719 106.969846 30.004101"/>
  </g>
</svg>
