<?xml version="1.0" encoding="utf-8"?>
<!-- Generator: Adobe Illustrator 16.0.0, SVG Export Plug-In . SVG Version: 6.00 Build 0)  -->
<!DOCTYPE svg PUBLIC "-//W3C//DTD SVG 1.1//EN" "http://www.w3.org/Graphics/SVG/1.1/DTD/svg11.dtd">
<svg version="1.1" id="Layer_1" xmlns="http://www.w3.org/2000/svg" xmlns:xlink="http://www.w3.org/1999/xlink" x="0px" y="0px"
	 width="512px" height="512px" viewBox="0 0 512 512" enable-background="new 0 0 512 512" xml:space="preserve">
<g>
	<path fill-rule="evenodd" clip-rule="evenodd" fill="#00A651" d="M257.79,311.15L257.79,311.15h-0.003l0,0l0,0l0,0v0.003l0,0l0,0
		l0,0l0,0l0,0l0,0l0,0l0,0l0,0l0,0l0,0h0.003l0,0v0.002l0,0l0,0l0,0l0,0l0,0c0,0,0,0,0.002,0l0,0l0,0l0,0v-0.002l0,0l0,0l0,0l0,0
		l0,0l0,0l0,0c0,0,0,0,0.003,0c-0.003,0-0.003,0-0.003,0l0,0c0,0,0,0,0.003,0c-0.003,0-0.003,0-0.003,0l0,0v-0.003l0,0l0,0l0,0l0,0
		l0,0v-0.002C257.79,311.148,257.79,311.148,257.79,311.15L257.79,311.15L257.79,311.15z M189.135,192.245
		c0.958-18.511,4.533-35.278,8.195-47.2c10.47,6.778,23.99,17.327,36.625,30.893c7.225-17.068,16.314-31.603,23.833-41.554
		c7.521,9.948,16.614,24.48,23.844,41.545c12.633-13.561,26.15-24.107,36.616-30.885c3.662,11.92,7.237,28.688,8.194,47.196
		c16.51-8.424,32.817-13.711,44.974-16.501c-0.636,12.454-3.013,29.432-8.441,47.153c18.396-2.27,35.526-1.662,47.902-0.125
		c-4.856,11.487-12.896,26.628-24.059,41.424c18.062,4.158,33.952,10.588,45.055,16.266c-8.491,9.133-21.224,20.609-36.773,30.694
		c15.55,10.085,28.282,21.564,36.776,30.696c-11.105,5.676-26.996,12.106-45.058,16.266c11.163,14.796,19.202,29.938,24.059,41.425
		c-12.374,1.535-29.507,2.144-47.902-0.126c5.429,17.721,7.808,34.699,8.443,47.153c-12.156-2.79-28.463-8.076-44.973-16.503
		c-0.96,18.509-4.532,35.277-8.194,47.199c-10.467-6.778-23.984-17.324-36.616-30.885c-7.232,17.063-16.324,31.596-23.842,41.545
		c-7.519-9.947-16.611-24.481-23.842-41.545c-12.632,13.561-26.148,24.106-36.616,30.885c-3.664-11.919-7.237-28.688-8.196-47.196
		c-16.508,8.427-32.816,13.713-44.972,16.502c0.636-12.453,3.013-29.432,8.442-47.155c-18.395,2.27-35.527,1.663-47.903,0.128
		c4.857-11.486,12.897-26.631,24.059-41.424c-18.062-4.16-33.951-10.588-45.056-16.266c8.493-9.133,21.226-20.612,36.775-30.696
		c-15.549-10.085-28.282-21.562-36.775-30.694c11.104-5.678,26.996-12.105,45.059-16.261
		c-11.164-14.797-19.205-29.941-24.062-41.428c12.376-1.537,29.507-2.147,47.901,0.122c-5.428-17.719-7.805-34.697-8.441-47.15
		C156.32,178.53,172.628,183.817,189.135,192.245L189.135,192.245z M257.79,311.15L257.79,311.15L257.79,311.15L257.79,311.15z"/>
	<path fill-rule="evenodd" clip-rule="evenodd" fill="#A6CE39" d="M257.792,311.148c-0.002,0-0.002,0-0.002,0l0,0h-0.003l0,0v0.002
		l0,0c0,0,0,0,0,0.003l0,0l0,0l0,0c0,0,0,0,0,0.002c0-0.002,0-0.002,0-0.002c0,0.002,0,0.002,0,0.002l0,0l0.003,0.003v-0.003
		c0,0.003,0,0.003,0.002,0.003c0,0,0,0,0-0.003v0.003v-0.003h0.003l0,0c0,0,0,0,0.002,0c-0.002,0-0.002-0.002-0.002-0.002
		s0,0,0.002,0h-0.002h0.002h-0.002c0-0.003,0-0.003,0.002-0.003c-0.002,0-0.002,0-0.002,0v-0.002l0,0H257.792L257.792,311.148
		L257.792,311.148L257.792,311.148L257.792,311.148z M156.735,328.968c-13.139-4.406-25.385-10.769-36.251-17.814
		c10.867-7.049,23.112-13.411,36.251-17.817c-10.839-8.635-20.169-18.807-27.971-29.146c12.623-2.907,26.307-4.696,40.163-4.346
		c-7.234-11.822-12.524-24.568-16.319-36.953c12.854,1.586,26.327,4.585,39.227,9.655c-2.753-13.583-3.366-27.372-2.697-40.307
		c11.537,5.888,23.173,13.31,33.561,22.485c2.058-13.705,6.197-26.87,11.25-38.795c8.827,9.478,17.22,20.433,23.843,32.608
		c6.621-12.174,15.017-23.13,23.842-32.608c5.054,11.925,9.192,25.091,11.252,38.795c10.387-9.175,22.023-16.598,33.559-22.485
		c0.672,12.935,0.058,26.724-2.695,40.307c12.898-5.069,26.37-8.068,39.225-9.653c-3.793,12.383-9.084,25.129-16.316,36.951
		c13.854-0.351,27.537,1.44,40.16,4.346c-7.801,10.339-17.131,20.511-27.97,29.146c13.138,4.406,25.383,10.769,36.249,17.817
		c-10.866,7.046-23.111,13.41-36.252,17.817c10.842,8.634,20.172,18.804,27.973,29.145c-12.62,2.905-26.307,4.696-40.16,4.344
		c7.232,11.822,12.523,24.568,16.316,36.952c-12.853-1.586-26.326-4.583-39.225-9.654c2.753,13.585,3.365,27.373,2.695,40.308
		c-11.535-5.889-23.174-13.31-33.559-22.485c-2.06,13.703-6.198,26.87-11.252,38.794c-8.828-9.478-17.221-20.433-23.842-32.605
		c-6.623,12.173-15.017,23.128-23.845,32.605c-5.053-11.924-9.191-25.091-11.25-38.794c-10.388,9.176-22.023,16.597-33.561,22.485
		c-0.67-12.935-0.057-26.726,2.698-40.308c-12.9,5.071-26.373,8.068-39.227,9.654c3.795-12.384,9.084-25.13,16.317-36.952
		c-13.854,0.353-27.538-1.438-40.161-4.347C136.565,347.774,145.896,337.604,156.735,328.968L156.735,328.968z"/>
	<path fill-rule="evenodd" clip-rule="evenodd" fill="#FFDA00" d="M257.787,311.153L257.787,311.153L257.787,311.153
		L257.787,311.153L257.787,311.153z M257.787,311.155v0.003c0.003,0,0.003-0.003,0.003-0.003s0,0.003,0.002,0.003v-0.003
		l0.003,0.003v-0.003h0.002c0,0-0.002,0-0.002-0.002c0.002,0,0.002,0,0.005,0c-0.003,0-0.003,0-0.003,0L257.787,311.155
		L257.787,311.155z M257.797,311.153v-0.003c0,0,0,0-0.002,0l0.002-0.002c0,0-0.002,0-0.002,0.002c0-0.002,0-0.002,0-0.005
		c0,0,0,0-0.003,0.003c0-0.003,0-0.003,0-0.005c0,0.002,0,0.002,0,0.005c0-0.003,0-0.003,0-0.005c0,0.002-0.002,0.005-0.002,0.007
		c0-0.002-0.003-0.002-0.003-0.002s0,0,0,0.002v-0.002v0.002c0,0,0,0-0.002,0l0.002,0.003c0,0,0,0-0.002,0h0.002H257.797
		L257.797,311.153z M257.787,311.155L257.787,311.155L257.787,311.155L257.787,311.155z M245.594,241.974
		c2.246-11.919,6.586-23.114,12.198-33.432c5.61,10.318,9.949,21.512,12.195,33.432c6.188-10.432,14.095-19.465,22.894-27.243
		c1.745,11.615,1.997,23.617,0.031,35.587c9.384-7.688,19.904-13.475,30.835-17.771c-2.335,11.512-6.203,22.875-12.145,33.452
		c11.448-4.015,23.312-5.85,35.053-6.149c-6.131,10.017-13.655,19.371-22.855,27.278c12.127,0.143,23.904,2.476,35.04,6.208
		c-9.188,7.316-19.456,13.533-30.805,17.817c11.352,4.283,21.622,10.498,30.81,17.814c-11.136,3.735-22.915,6.065-35.045,6.21
		c9.2,7.904,16.723,17.262,22.855,27.278c-11.743-0.3-23.604-2.137-35.053-6.151c5.941,10.575,9.81,21.937,12.145,33.447
		c-10.931-4.296-21.451-10.08-30.832-17.767c1.965,11.97,1.716,23.972-0.029,35.587c-8.801-7.779-16.705-16.812-22.894-27.243
		c-2.248,11.922-6.587,23.114-12.2,33.434c-5.61-10.319-9.949-21.512-12.196-33.434c-6.188,10.434-14.095,19.467-22.896,27.243
		c-1.743-11.615-1.996-23.617-0.03-35.585c-9.384,7.688-19.901,13.472-30.832,17.77c2.334-11.511,6.203-22.874,12.144-33.452
		c-11.448,4.015-23.312,5.852-35.053,6.151c6.13-10.017,13.655-19.371,22.855-27.278c-12.13-0.143-23.906-2.473-35.042-6.207
		c9.187-7.317,19.455-13.534,30.803-17.817c-11.349-4.284-21.62-10.498-30.808-17.815c11.136-3.734,22.915-6.067,35.046-6.212
		c-9.2-7.905-16.723-17.262-22.853-27.279c11.741,0.3,23.604,2.14,35.05,6.152c-5.94-10.576-9.808-21.937-12.143-33.447
		c10.931,4.298,21.448,10.08,30.831,17.767c-1.965-11.97-1.716-23.972,0.029-35.587
		C231.498,222.509,239.404,231.542,245.594,241.974L245.594,241.974z M257.79,311.15L257.79,311.15L257.79,311.15z"/>
	<path fill-rule="evenodd" clip-rule="evenodd" fill="#FFFFFF" d="M245.449,277.239c-2.23-12.304-1.959-24.1,0.145-35.26
		c5.795,9.768,10.083,20.759,12.196,33.084c2.11-12.325,6.403-23.316,12.194-33.083c2.108,11.159,2.377,22.956,0.148,35.256
		c6.199-10.857,13.99-19.717,22.774-26.915c-1.839,11.208-5.617,22.385-11.922,33.183c9.539-8.084,19.892-13.745,30.61-17.504
		c-5.562,9.903-12.936,19.113-22.554,27.103c11.729-4.332,23.395-6.111,34.748-5.978c-8.612,7.403-18.692,13.536-30.462,17.757
		c12.502-0.061,24.073,2.258,34.699,6.266c-10.626,4.013-22.197,6.325-34.699,6.268c11.77,4.221,21.85,10.354,30.465,17.755
		c-11.359,0.135-23.022-1.646-34.751-5.979c9.616,7.992,16.991,17.204,22.554,27.104c-10.719-3.756-21.071-9.42-30.61-17.503
		c6.302,10.798,10.083,21.976,11.925,33.184c-8.787-7.198-16.58-16.06-22.78-26.918c2.231,12.304,1.96,24.1-0.143,35.261
		c-5.797-9.769-10.087-20.762-12.2-33.088c-2.112,12.326-6.399,23.319-12.193,33.088c-2.104-11.161-2.377-22.957-0.147-35.261
		c-6.2,10.858-13.99,19.72-22.775,26.918c1.84-11.208,5.62-22.386,11.923-33.186c-9.54,8.083-19.893,13.749-30.61,17.505
		c5.562-9.9,12.937-19.115,22.554-27.106c-11.729,4.334-23.394,6.115-34.75,5.982c8.614-7.403,18.694-13.539,30.463-17.759
		c-12.503,0.06-24.073-2.256-34.699-6.264c10.626-4.01,22.196-6.331,34.699-6.271c-11.77-4.22-21.849-10.351-30.463-17.754
		c11.356-0.134,23.021,1.646,34.749,5.978c-9.616-7.991-16.991-17.201-22.553-27.103c10.718,3.759,21.07,9.418,30.61,17.501
		c-6.303-10.798-10.083-21.973-11.923-33.18C231.458,257.52,239.249,266.381,245.449,277.239L245.449,277.239z"/>
	<path fill-rule="evenodd" clip-rule="evenodd" fill="#00A651" d="M304.704,24.834v86.306h12.843v-8.281
		c5.281,7.083,11.165,10.343,19.688,10.343c15.846,0,27.127-12.865,27.127-33.392c0-21.125-11.523-33.969-27.008-33.969
		c-8.523,0-15.125,3.6-19.687,10.442v-31.45H304.704L304.704,24.834z M334.232,57.605c10.203,0,16.565,7.922,16.565,22.327
		c0,13.684-6.362,21.487-16.565,21.487c-10.684,0-16.805-7.562-16.805-21.847C317.428,65.046,323.188,57.605,334.232,57.605
		L334.232,57.605z"/>
	<path fill-rule="evenodd" clip-rule="evenodd" fill="#00A651" d="M402.588,57.605c10.084,0,16.564,7.922,16.564,21.606
		c0,14.404-6.361,22.208-16.564,22.208c-10.924,0-16.805-7.322-16.805-21.487C385.783,65.167,391.785,57.605,402.588,57.605
		L402.588,57.605z M386.022,103.339c4.442,6.482,11.165,9.863,19.686,9.863c15.485,0,27.011-12.865,27.011-33.991
		c0-20.526-11.284-33.37-27.129-33.37c-8.645,0-14.525,3.359-19.687,10.922v-8.882h-12.845v88.488h12.964V103.339L386.022,103.339z"
		/>
</g>
</svg>
