<?xml version="1.0" encoding="utf-8"?>
<!-- Generator: Adobe Illustrator 14.0.0, SVG Export Plug-In . SVG Version: 6.00 Build 43363)  -->
<!DOCTYPE svg PUBLIC "-//W3C//DTD SVG 1.1//EN" "http://www.w3.org/Graphics/SVG/1.1/DTD/svg11.dtd">
<svg version="1.1" id="Layer_1" xmlns="http://www.w3.org/2000/svg" xmlns:xlink="http://www.w3.org/1999/xlink" x="0px" y="0px"
	 width="612px" height="792px" viewBox="0 0 612 792" enable-background="new 0 0 612 792" xml:space="preserve">
<g>
	<polygon fill-rule="evenodd" clip-rule="evenodd" fill="#FFFFFF" points="209,300 401.756,300 401.756,492.756 209,492.756 
		209,300 	"/>
	<path fill-rule="evenodd" clip-rule="evenodd" fill="#E03A3E" d="M290.121,456.711h0.61v-1.65h0.672l1.161,1.65h0.641L291.983,455
		c0.397-0.092,0.947-0.336,0.947-1.039c0-0.307-0.092-0.58-0.336-0.764c-0.274-0.213-0.642-0.336-1.374-0.336h-1.069
		L290.121,456.711L290.121,456.711z M290.731,453.258h0.458c0.641,0,1.13,0.154,1.13,0.734c0,0.428-0.336,0.701-0.916,0.701h-0.672
		V453.258L290.731,453.258z M291.404,451.578c-1.863,0-3.299,1.436-3.299,3.238c0,1.801,1.436,3.236,3.299,3.236
		c1.832,0,3.268-1.436,3.268-3.236C294.671,453.014,293.236,451.578,291.404,451.578L291.404,451.578L291.404,451.578z
		 M291.404,452.006c1.557,0,2.81,1.252,2.81,2.811c0,1.588-1.222,2.809-2.81,2.809c-1.588,0-2.841-1.221-2.841-2.809
		C288.563,453.258,289.815,452.006,291.404,452.006L291.404,452.006L291.404,452.006z"/>
	<polygon fill-rule="evenodd" clip-rule="evenodd" fill="#E03A3E" points="311.255,333.389 389.956,333.389 326.982,396.393 
		389.956,459.367 311.255,459.367 285.417,433.529 285.417,459.367 230.598,459.367 230.598,333.389 285.417,333.389 
		285.417,359.226 311.255,333.389 	"/>
	<path fill-rule="evenodd" clip-rule="evenodd" fill="#FFFFFF" d="M331.289,341.055c1.099,1.283,1.191,3.146,0.885,4.825
		l-0.793,1.527c-4.185,4.337-8.796,8.949-11.728,14.11c-0.122,5.344-0.153,10.75,0.244,15.972c0.092,0.122,0.152,0.245,0.275,0.275
		c1.037-0.55,1.618-1.771,2.198-2.718c1.068-1.955,1.832-4.032,2.534-6.139c0.122-0.397,0.55-0.336,0.794-0.489
		c1.558,0.214,2.199,1.955,2.719,3.115c0.642,4.123-1.771,7.482-3.849,10.72c-1.984,2.442-4.672,5.191-7.939,4.245
		c-3.299-1.191-2.688-4.978-3.115-7.849c-0.672-10.842-0.062-21.836,0.52-32.464c0.366-1.557,0.213-3.451,1.709-4.337
		c1.375-0.305,2.871-0.091,3.972,0.672c0.641,0.702,0.763,1.588,0.671,2.535c0.03,2.229-0.336,4.336-0.213,6.505
		c2.595-3.664,5.404-7.574,8.947-10.658C329.67,340.352,330.8,340.475,331.289,341.055L331.289,341.055z"/>
	<path fill-rule="evenodd" clip-rule="evenodd" fill="#FFFFFF" d="M311.315,359.531c0.52,1.894,1.374,4.214,0.336,6.139
		c-4.214,6.902-5.986,15.026-5.588,23.546c0.091,3.39,0.519,6.628,0.947,9.927c-0.123,0.672-0.428,1.344-1.1,1.74
		c-0.917,0.52-2.261,0.793-3.268,0.305c-0.886-0.916-0.764-2.381-1.161-3.572l-0.213,0.213c-0.336,3.971-0.581,7.941-3.207,10.994
		c-0.642,0.551-1.344,0.824-2.169,0.887c-2.26-0.336-2.596-2.811-3.207-4.49l-0.213,0.184c-0.428,5.07-1.131,10.047-4.765,13.713
		c-1.069,0.947-2.412,1.527-3.848,1.16c-1.099-0.367-1.954-1.588-2.382-2.566l-0.245,0.336c-0.825,4.369-1.619,8.889-4.733,12.186
		c-1.069,0.979-2.382,1.59-3.909,1.314c-2.016-0.396-2.657-2.688-3.207-4.367c-1.008-4.428-1.099-9.406-1.222-14.049
		c-0.091-0.092-0.121-0.184-0.244-0.152c-0.916,2.229-0.946,4.795-1.374,7.176c-0.55,6.445-0.672,12.645-0.672,19.242
		c-0.183,0.945-0.336,1.893-1.131,2.533c-0.946,0.764-2.259,1.1-3.542,0.734c-1.467-0.764-1.68-2.506-2.107-3.941
		c-0.794-4.672-0.977-9.527-1.161-14.537l-0.152-0.152l-0.397,0.398c-2.352,8.092-1.954,17.377-2.168,26.02
		c-0.183,0.764-0.428,1.617-1.191,1.984c-0.854,0.488-2.107,0.488-3.115,0.275c-2.077-0.732-2.046-3.084-2.535-4.826
		c-1.008-6.107-0.611-12.766-0.885-19.117c-0.062-0.275-0.123-0.58-0.397-0.764c-0.977,0.244-1.436,1.039-2.046,1.771
		c-0.886,0.824-1.161,2.412-2.535,2.748c-1.527,0.123-3.024-0.336-3.878-1.709c-0.122-2.139,1.374-3.85,2.657-5.406
		c1.74-1.863,3.604-4.154,6.016-5.07c1.497-0.213,2.779,0.551,3.543,1.709c1.038,3.025,0.793,6.262,1.221,9.5
		c0.397-0.031,0.184-0.549,0.336-0.824c0.367-5.895,1.282-11.545,2.381-17.104c0.307-1.557,1.13-3.359,2.81-3.848
		c0.855-0.184,1.955-0.367,2.718,0.121l0.642,0.826c0.458,4.213,0.122,8.703,0.825,12.643c0.031,0.092,0.091,0.063,0.183,0.063
		c0.55-2.596,0.58-5.59,1.039-8.307c0.672-4.918,1.374-10.049,3.604-14.324c1.1-1.375,2.626-1.619,4.307-1.465
		c1.923,1.006,1.648,3.51,1.771,5.557c0,5.711,0.03,11.086,1.282,16.369c0.214,0.398,0.367,0.979,0.886,1.131
		c1.252-0.338,1.527-1.68,1.863-2.719c1.802-8.764,0.123-18.902,3.146-27.303c1.496-4.488,3.359-9.162,7.573-12.277
		c1.252-0.793,3.298-0.855,4.612-0.214c2.046,1.436,1.527,4.123,1.802,6.353c0.244,4.979,0.122,9.529,1.435,14.14
		c0.306,0.336,0.671,0.732,1.16,0.459c1.527-1.834,1.833-4.185,2.23-6.537c1.038-8.795,0.519-16.797-0.611-25.378
		c0.854-1.222,2.412-0.886,3.695-0.549c2.077,0.732,1.71,3.236,2.107,5.039l0.213-0.336c0.825-4.917,0.977-10.108,4.368-13.927
		c0.335-0.458,0.824-0.519,1.221-0.763C310.247,358.493,311.01,358.89,311.315,359.531L311.315,359.531z"/>
	<path fill-rule="evenodd" clip-rule="evenodd" fill="#E03A3E" d="M288.167,389.766c0.58,5.863,0.458,12.003-0.397,17.683
		c-0.427,1.465-0.641,3.328-2.199,4.031c-1.344-0.428-1.618-2.016-1.833-3.27c-0.458-6.168,0-12.154,1.985-17.56
		c0.245-0.611,0.794-1.282,1.405-1.558C287.677,388.88,288.074,389.369,288.167,389.766L288.167,389.766z"/>
</g>
</svg>
