<?xml version="1.0" encoding="utf-8"?>
<!-- Generator: Adobe Illustrator 16.0.0, SVG Export Plug-In . SVG Version: 6.00 Build 0)  -->
<!DOCTYPE svg PUBLIC "-//W3C//DTD SVG 1.1//EN" "http://www.w3.org/Graphics/SVG/1.1/DTD/svg11.dtd">
<svg version="1.1" id="Layer_1" xmlns="http://www.w3.org/2000/svg" xmlns:xlink="http://www.w3.org/1999/xlink" x="0px" y="0px"
	 width="512px" height="512px" viewBox="0 0 512 512" enable-background="new 0 0 512 512" xml:space="preserve">
<g>
	<polygon points="43.978,337.251 43.978,326.19 54.521,326.19 54.521,337.251 60,337.251 60,312.064 54.456,312.064 54.456,322.007 
		43.978,322.007 43.978,312.064 38.507,312.064 38.507,337.251 	"/>
	<path d="M108.438,312.057v13.681c0,4.257-0.13,8.062-5.498,8.062c-5.36,0-5.48-3.805-5.48-8.062v-13.681h-5.647v15.772
		c0,6.701,4.943,9.94,11.127,9.94c6.183,0,11.144-3.239,11.144-9.94v-15.772H108.438z"/>
	<path d="M163.014,327.996v5.1c-1.37,0.443-2.731,0.768-4.842,0.768c-5.192,0-7.414-3.526-7.414-9.219c0-5.675,2.018-9.2,6.869-9.2
		c3.239,0,5.266,2.054,5.266,4.285h5.573c0-4.971-4.416-8.192-11.099-8.192c-5.275,0-12.431,3.102-12.431,13.107
		c0,10.015,6.859,13.125,12.986,13.125c5.239,0,8.627-1.091,10.571-1.943v-12.016h-10.46v4.186H163.014z"/>
	<path d="M418.098,319.101c0-5.101-5.045-7.906-9.757-7.906c-4.739,0-9.885,2.852-9.885,7.906c0,3.609,2.6,5.572,6.201,6.59
		c1.11,0.323,3.035,0.936,3.999,1.193c3.462,0.963,4.655,1.88,4.655,3.944c0,2.795-2.693,3.674-4.323,3.674
		c-4.118,0-5.581-2.378-5.581-5.211h-5.47c0,5.592,4.128,8.793,11.051,8.793c5.314,0,10.2-2.906,10.2-8.025
		c0-3.952-3.017-6.155-6.941-7.294c-1.36-0.397-2.666-0.722-3.98-1.139c-3.063-0.962-4.369-1.721-4.369-3.637
		c0-1.769,1.334-3.286,4.323-3.286c2.99,0,4.472,1.906,4.472,4.397H418.098z"/>
	<path d="M472.08,319.101c0-5.101-5.036-7.906-9.756-7.906c-4.74,0-9.877,2.852-9.877,7.906c0,3.609,2.601,5.572,6.192,6.59
		c1.129,0.323,3.036,0.936,3.999,1.193c3.471,0.963,4.674,1.88,4.674,3.944c0,2.795-2.703,3.674-4.331,3.674
		c-4.138,0-5.583-2.378-5.583-5.211h-5.47c0,5.592,4.119,8.793,11.053,8.793c5.312,0,10.191-2.906,10.191-8.025
		c0-3.952-3.009-6.155-6.943-7.294c-1.36-0.397-2.666-0.722-3.979-1.139c-3.056-0.962-4.369-1.721-4.369-3.637
		c0-1.769,1.342-3.286,4.332-3.286c2.98,0,4.461,1.906,4.461,4.397H472.08z"/>
	<path d="M212.034,338.029c8.608,0,12.496-5.795,12.496-13.376c0-7.572-3.888-13.375-12.496-13.375s-12.505,5.803-12.505,13.375
		C199.529,332.234,203.426,338.029,212.034,338.029 M212.034,315.24c5.499,0,6.553,5.007,6.553,9.413
		c0,4.416-1.055,9.414-6.553,9.414c-5.517,0-6.562-4.998-6.562-9.414C205.472,320.247,206.518,315.24,212.034,315.24"/>
	<path d="M298.895,337.501c5.147,0,9.775-2.461,9.775-7.099c0-3.841-3.046-6.092-6.055-6.313c2.111-0.269,4.879-2.479,4.879-5.619
		c0-4.545-3.49-6.663-8.867-6.663h-11.099v25.694H298.895z M293.008,333.577v-7.387h4.962c2.444,0,4.526,0.731,4.526,3.628
		c0,2.787-2.203,3.759-4.526,3.759H293.008z M293.027,322.331v-6.591h5.081c2.239,0,3.582,1.453,3.582,3.36
		c0,1.971-1.805,3.23-3.813,3.23H293.027z"/>
	<path d="M353.192,338.149c8.691,0,12.626-5.858,12.626-13.515c0-7.654-3.935-13.514-12.626-13.514s-12.625,5.859-12.625,13.514
		C340.567,332.291,344.501,338.149,353.192,338.149 M353.192,315.11c5.646,0,6.721,5.008,6.721,9.524
		c0,4.526-1.074,9.535-6.721,9.535s-6.72-5.009-6.72-9.535C346.473,320.118,347.546,315.11,353.192,315.11"/>
	<path d="M376.296,253.187c1.147,12.968-4.572,37.136-41.293,38.644c-16.244,0.667-36.636-4.386-44.716-8.135v-31.157h4.055
		c0.869,3.822,8.515,32.638,35.358,33.934c15.568,0.723,27.417-5.795,27.712-18.754c0.353-14.995-16.271-20.169-31.257-26.157
		c-16.93-6.758-33.313-13.459-35.591-31.796c-2.685-21.354,17.105-35.887,39.746-34.961c12.478,0.51,25.038,3.573,34.637,7.471
		v26.25h-3.998c-2.277-14.272-10.886-27.778-30.379-28.981c-11.376-0.713-21.79,3.536-21.808,15.93
		c0,12.33,20.678,17.43,35.654,23.354C359.644,224.88,374.49,233.164,376.296,253.187"/>
	<path d="M478.864,253.187c1.167,12.968-4.572,37.136-41.292,38.644c-16.235,0.667-36.627-4.386-44.707-8.135v-31.157h4.053
		c0.871,3.822,8.517,32.638,35.351,33.934c15.568,0.723,27.426-5.795,27.713-18.754c0.361-14.995-16.271-20.169-31.258-26.157
		c-16.92-6.758-33.313-13.459-35.581-31.796c-2.685-21.354,17.096-35.887,39.746-34.961c12.478,0.51,25.029,3.573,34.637,7.471
		v26.25h-3.998c-2.287-14.272-10.896-27.778-30.389-28.981c-11.358-0.713-21.799,3.536-21.799,15.93
		c0,12.33,20.67,17.43,35.665,23.354C462.213,224.88,477.061,233.164,478.864,253.187"/>
	<path d="M153.423,233.562c0-32.971,26.742-59.712,59.731-59.712c32.999,0,59.731,26.741,59.731,59.712
		c0,32.98-26.732,59.704-59.731,59.704C180.165,293.267,153.423,266.543,153.423,233.562 M213.136,288.249
		c23.437-0.307,31.518-30.129,31.499-54.77c0-24.715-10.191-54.991-31.499-54.991c-22.456-0.074-31.545,30.286-31.508,54.991
		C181.673,258.12,189.782,288.555,213.136,288.249"/>
	<path d="M43.237,280.808c0,3.35-3.795,5.017-7.451,4.941H33v4.268h60.776c21.419,0,44.356-9.969,44.587-31.952
		c0.306-25.168-25.501-29.583-33.553-30.269c12.7-2.055,27.713-12.672,27.009-27.759c-0.759-16.144-17.855-23.678-34.026-23.66
		l-64.109,0.074v4.332h3.24c2.435,0,6.313,0.694,6.313,4.268V280.808z M69.192,285.37v-54.538h15.069
		c16.939,0,25.788,11.94,26.473,25.557c0.842,16.365-11.219,28.981-26.547,28.981H69.192z M69.192,226.5v-45.717h12.709
		c12.44,0,22.52,7.84,23.131,21.983c0.537,13.459-9.663,23.733-22.372,23.733H69.192z"/>
</g>
</svg>
