<?xml version="1.0" encoding="utf-8"?>
<!-- Generator: Adobe Illustrator 16.0.0, SVG Export Plug-In . SVG Version: 6.00 Build 0)  -->
<!DOCTYPE svg PUBLIC "-//W3C//DTD SVG 1.1//EN" "http://www.w3.org/Graphics/SVG/1.1/DTD/svg11.dtd">
<svg version="1.1" id="Layer_1" xmlns="http://www.w3.org/2000/svg" xmlns:xlink="http://www.w3.org/1999/xlink" x="0px" y="0px"
	 width="512px" height="512px" viewBox="0 0 512 512" enable-background="new 0 0 512 512" xml:space="preserve">
<g>
	<g>
		<polygon fill-rule="evenodd" clip-rule="evenodd" fill="#0C0D07" points="79.158,37.718 430.842,37.718 255,360.485 		"/>
		<polygon fill-rule="evenodd" clip-rule="evenodd" fill="#7274AF" points="85.893,41.718 424.108,41.718 255,352.124 		"/>
		<polygon fill-rule="evenodd" clip-rule="evenodd" points="90.943,44.718 419.057,44.718 255,345.854 		"/>
		<linearGradient id="SVGID_1_" gradientUnits="userSpaceOnUse" x1="255.0005" y1="256.7178" x2="255.0005" y2="42.2129">
			<stop  offset="0" style="stop-color:#F9D382"/>
			<stop  offset="1" style="stop-color:#AC4023"/>
		</linearGradient>
		<polygon fill-rule="evenodd" clip-rule="evenodd" fill="url(#SVGID_1_)" points="416.532,46.218 255,342.717 93.469,46.218 		"/>
		<polygon fill-rule="evenodd" clip-rule="evenodd" points="95.203,10.718 414.795,10.718 255,303.983 		"/>
		<polygon fill-rule="evenodd" clip-rule="evenodd" fill="#FFC233" points="101.938,14.718 408.061,14.718 255,295.622 		"/>
		<polygon fill-rule="evenodd" clip-rule="evenodd" points="106.989,17.718 403.01,17.718 255,289.352 		"/>
		<polygon fill-rule="evenodd" clip-rule="evenodd" fill="#BE301A" points="400.485,19.218 255,286.217 109.515,19.218 		"/>
	</g>
	<path fill-rule="evenodd" clip-rule="evenodd" d="M249.936,229.142c-2.299,0-4.674-0.233-7.06-0.692
		c-5.722-1.102-10.73-5.353-13.396-11.37c-2.83-6.388-2.559-13.694,0.709-19.067c2.254-3.707,5.751-5.666,10.112-5.666
		c1.277,0,2.644,0.171,4.061,0.508c5.667,1.348,9.322,6.09,9.312,12.08c-0.006,3.377-0.632,6.717-1.237,9.947
		c-0.149,0.795-0.301,1.606-0.444,2.421c0.581-0.133,1.452-0.888,1.79-2.622c1.127-5.779,1.705-11.234,1.719-16.214
		c0.116-42.385,0.118-85.481,0.119-127.158l0.003-31.314h-10.699V28.944h50.696v10.825h-9.846v7.377
		c0,12.661,0.008,25.322,0.016,37.984c0.021,32.444,0.043,65.993-0.08,98.992c-0.041,10.622-1.609,26.032-14.695,37.174
		C264.899,226.502,257.807,229.142,249.936,229.142z M295.913,178.862v-32.737h8.326l0.775,1.833
		c0.047,0.11,1.146,2.719,1.658,4.272c0.377,1.14,0.736,2.29,1.096,3.441c1.148,3.688,2.236,7.171,3.881,10.326
		c1.418,2.713,3.664,3.923,7.283,3.923c1.154,0,2.463-0.134,3.891-0.398c1.969-0.364,4.338-1.462,5.215-6.771
		c0.645-3.916-0.645-6.39-4.604-8.821c-1.494-0.917-3.002-1.819-4.51-2.722c-5.281-3.16-10.742-6.427-15.641-10.392
		c-11.279-9.131-8.949-29.6-1.934-38.416c3.602-4.525,9.061-7.121,14.977-7.121c3.279,0,6.541,0.826,9.43,2.388
		c1.436,0.776,2.074,1.148,3.615,2.048l1.537,0.895c0.373-0.59,0.814-1.642,1.035-2.534l0.625-2.534l2.598,0.259
		c0.002,0,0.48,0.04,1.57,0.04h3v27.8l-2.352,0.759l-0.436,0.135h-5.457l-1.533-4.458c-2.324-6.756-5.438-11.519-8.561-13.123
		c-1.551-0.797-3.244-1.218-4.898-1.218c-2.605,0-4.785,1.007-5.979,2.764c-2.027,2.985-0.865,7.128,2.766,9.85
		c2.182,1.635,4.688,2.918,7.34,4.276c1.006,0.514,2.01,1.029,2.996,1.562c7.195,3.89,16.148,8.731,18.459,19.569
		c2.139,10.03,0.793,19.139-4.002,27.074c-3.699,6.124-10.086,9.636-17.523,9.636c-0.002,0,0,0-0.002,0
		c-3.576,0-7.252-0.786-10.922-2.335c-1.26-0.532-2.494-1.111-3.611-1.641l-5.795,5.804L295.913,178.862z M168.25,169.718h7v-116h-7
		v-11h5.141c0.684,0.012,1.325,0.021,1.841,0.021l4.224-0.021l17.794-0.001l3.001-0.055c5.242,0.002,10.482,0.016,15.723,0.059
		c18.206,0.151,31.796,10.976,33.819,26.936c2.569,20.272-4.759,32.688-23.012,38.775c10.926,3.457,23.118,9.625,26.465,25.058
		c2.749,12.667,0.702,24.779-5.615,33.232c-5.727,7.663-14.728,12.153-26.029,12.986c-11.651,0.859-23.589,0.882-35.133,0.905
		c-5.263,0.01-10.233,0.02-15.167,0.104l-3.051,0.052V169.718z M206.25,169.481c14.444-0.072,15.096-8.674,15.311-11.509
		c0.72-9.519,0.746-18.852,0.076-27.739c-0.767-10.173-5.662-15.045-15.386-15.279V169.481z M206.25,103.585
		c7.009-0.202,10.439-3.075,12.126-10.046c2.475-10.225,2.405-20.476-0.208-30.469c-1.966-7.521-5.461-9.062-10.103-9.062
		c-0.572,0-1.178,0.028-1.816,0.084V103.585z M296.516,39.745l27.197,10.17l-27.197,48.158V39.745z"/>
	<path fill-rule="evenodd" clip-rule="evenodd" fill="#FFFFFF" d="M247.924,36.993h10.497c0.102,1.218,0.203,1.871,0.203,2.523
		c-0.012,52.986,0.023,105.972-0.123,158.958c-0.016,5.602-0.701,11.275-1.774,16.78c-1.014,5.204-5.774,6.509-8.002,3.418
		c0.73-4.779,1.941-9.26,1.949-13.744c0.008-4.391-2.443-8.07-7.006-9.156c-4.225-1.005-8.349-0.422-10.916,3.798
		c-5.667,9.318,0.009,23.875,10.691,25.933c9.264,1.784,18.127-0.107,25.625-6.492c10.811-9.204,13.59-21.662,13.641-34.901
		c0.17-45.654,0.064-91.31,0.064-136.964V36.769h9.846v-4.825h-44.696V36.993z M299.516,44.07v42.59
		c6.951-12.311,13.285-23.525,19.859-35.164C312.493,48.922,306.256,46.591,299.516,44.07z M250.314,134.126
		c-2.987-13.772-13.921-19.773-26.408-23.433c-2.715-0.795-5.484-1.405-9.363-2.388c3.371-0.711,5.485-1.062,7.548-1.607
		c19.671-5.199,27.281-16.502,24.725-36.665c-1.824-14.399-14.133-24.174-30.867-24.312c-5.233-0.043-10.466-0.057-15.699-0.059
		v0.056h-20.778c-1.333,0.007-2.666,0.013-3.999,0.02c-0.564,0.003-1.331-0.006-2.082-0.02h-2.141v5h7v122h-7v5
		c16-0.273,33.405,0.232,50.131-1.001C246.771,174.846,254.668,154.19,250.314,134.126z M203.25,51.469
		c10-1.747,15.35,1.391,17.821,10.843c2.761,10.561,2.779,21.366,0.221,31.934c-2.328,9.619-8.042,12.877-18.042,12.285V51.469z
		 M224.552,158.199c-0.785,10.358-8.302,15.008-21.302,14.191v-60.375c13-0.791,20.404,5.07,21.378,17.992
		C225.333,139.357,225.26,148.847,224.552,158.199z M339.149,144.383c-1.977-9.273-9.434-13.491-16.951-17.556
		c-3.615-1.954-7.451-3.635-10.709-6.078c-5.092-3.818-6.297-9.744-3.447-13.937c2.889-4.251,9.287-5.323,14.729-2.529
		c6.049,3.106,9.418,13.047,10.025,14.815c0.609,1.768,0.838,2.435,0.838,2.435h2.861c0.08-0.025,0.158-0.049,0.242-0.076V98.841
		c-1.338,0-1.879-0.056-1.879-0.056s-1.6,6.659-4.914,4.734s-3.729-2.194-5.613-3.213c-6.975-3.77-15.74-2.186-20.633,3.962
		c-6.543,8.222-8.01,26.538,1.475,34.216c6.096,4.935,13.109,8.76,19.832,12.889c4.533,2.785,6.918,6.253,5.992,11.866
		c-0.781,4.743-2.916,8.362-7.629,9.233c-5.543,1.025-11.377,0.66-14.377-5.087c-2.312-4.432-3.584-9.422-5.166-14.214
		c-0.48-1.456-1.574-4.045-1.574-4.045h-3.338v28.292c0.361,0.288,0.723,0.576,1.084,0.864c1.693-1.696,3.387-3.393,5.395-5.403
		c1.578,0.73,3.467,1.672,5.408,2.492c9.992,4.217,19.812,2.027,24.715-6.088C340.143,161.618,341,153.067,339.149,144.383z"/>
	<g>
		<path fill-rule="evenodd" clip-rule="evenodd" d="M268.395,380.176c5.195,0,15.219,0,15.219,0s-0.041,2.092-0.035,3.209
			c0.025,7.156,0.064,14.314-0.004,21.471c-0.1,10.605-5.895,16.754-16.383,17.512c-3.5,0.252-7.037,0.338-10.432-0.529
			c-6.785-1.732-11.441-6.15-11.906-13.117c-0.626-9.396-0.155-18.863-0.155-28.529c4.921,0,14.863,0,14.863,0
			s0.064,15.986,0.084,22.145c0.006,2.148-0.203,4.363,1.479,6.27c1.74,1.111,3.621,1.113,5.553,0.135
			c1.83-1.863,1.725-4.217,1.721-6.551C268.389,395.043,268.395,387.897,268.395,380.176z"/>
		<path fill-rule="evenodd" clip-rule="evenodd" d="M369.895,458.92c5.195,0,15.219,0,15.219,0s-0.041,2.092-0.035,3.209
			c0.025,7.156,0.064,14.314-0.004,21.471c-0.1,10.605-5.895,16.752-16.383,17.51c-3.5,0.254-7.037,0.338-10.432-0.529
			c-6.785-1.732-11.441-6.15-11.906-13.117c-0.627-9.395-0.156-18.863-0.156-28.527c4.922,0,14.863,0,14.863,0
			s0.064,15.984,0.084,22.143c0.006,2.15-0.203,4.365,1.479,6.271c1.74,1.111,3.621,1.113,5.553,0.133
			c1.83-1.863,1.725-4.215,1.721-6.551C369.889,473.786,369.895,466.639,369.895,458.92z"/>
		<path fill-rule="evenodd" clip-rule="evenodd" d="M124.16,418.397c1.494-3.793,2.883-7.324,4.44-11.279
			c3.889,2.572,7.645,5.072,12.374,3.842c1.262-0.33,1.911-1.238,1.666-2.709c-0.87-1.686-2.625-1.691-4.214-2.041
			c-1.779-0.389-2.952-0.406-4.654-1.014c-6.503-2.322-9.837-8.426-7.614-15.062c1.605-4.795,4.669-8.158,9.216-9.889
			c7.294-2.777,14.59-1.395,21.406,2.449c-0.873,3.754-2.294,7.053-3.696,10.365c-8.523-3.312-11.648-4.188-12.264-0.637
			c-0.071,1.887,1.882,2.088,3.265,2.471c1.754,0.486,3.577,0.732,5.32,1.25c4.612,1.371,8.052,4.076,8.924,9.043
			c0.9,5.123-0.717,9.518-4.607,13.006c-1.886,1.689-4.158,2.717-6.549,3.471C140.951,423.625,130.628,422.241,124.16,418.397z"/>
		<path fill-rule="evenodd" clip-rule="evenodd" d="M395.692,496.827c1.492-3.795,2.883-7.324,4.439-11.279
			c3.889,2.572,7.645,5.072,12.373,3.84c1.264-0.328,1.912-1.236,1.666-2.707c-0.869-1.686-2.625-1.693-4.213-2.041
			c-1.779-0.391-2.953-0.406-4.654-1.014c-6.504-2.322-9.838-8.428-7.615-15.062c1.605-4.795,4.67-8.158,9.217-9.889
			c7.295-2.779,14.59-1.396,21.406,2.447c-0.873,3.754-2.295,7.055-3.695,10.367c-8.523-3.312-11.648-4.188-12.266-0.639
			c-0.07,1.889,1.883,2.09,3.266,2.473c1.754,0.486,3.576,0.732,5.32,1.25c4.611,1.371,8.051,4.074,8.924,9.043
			c0.9,5.121-0.717,9.518-4.607,13.004c-1.887,1.691-4.158,2.719-6.549,3.473C412.483,502.053,402.159,500.67,395.692,496.827z"/>
		<path fill-rule="evenodd" clip-rule="evenodd" d="M57.493,421.807v-12.84l7.147,12.84h17.096
			c-3.511-5.834-7.1-11.111-11.104-16.369c5.794-1.916,8.253-5.961,7.924-11.842c-0.427-7.621-5.792-12.99-13.951-13.477
			c-5.136-0.307-21.851-0.104-21.851-0.104v41.791H57.493z M57.487,391.772c5.388-0.582,6.39,3.266,5.252,5.383
			c-1.138,2.119-5.354,1.312-5.354,1.312L57.487,391.772z"/>
		<path fill-rule="evenodd" clip-rule="evenodd" d="M102.677,500.629v-12.84l7.147,12.84h17.096
			c-3.511-5.834-7.1-11.111-11.104-16.369c5.794-1.916,8.253-5.961,7.924-11.842c-0.427-7.621-5.792-12.99-13.951-13.477
			c-5.136-0.307-21.851-0.104-21.851-0.104v41.791H102.677z M102.672,470.594c5.388-0.582,6.39,3.266,5.252,5.383
			c-1.138,2.119-5.354,1.312-5.354,1.312L102.672,470.594z"/>
		<path fill-rule="evenodd" clip-rule="evenodd" d="M305.495,421.807v-12.84l7.146,12.84h17.096
			c-3.512-5.834-7.1-11.111-11.104-16.369c5.793-1.916,8.252-5.961,7.924-11.842c-0.428-7.621-5.793-12.99-13.951-13.477
			c-5.137-0.307-21.852-0.104-21.852-0.104v41.791H305.495z M305.489,391.772c5.389-0.582,6.391,3.266,5.252,5.383
			c-1.139,2.119-5.355,1.312-5.355,1.312L305.489,391.772z"/>
		<polygon fill-rule="evenodd" clip-rule="evenodd" points="103.311,405.684 114.373,405.684 114.373,395.622 103.248,395.622 
			103.248,391.114 115.976,391.114 115.976,380.245 87.938,380.245 87.938,421.807 116.426,421.807 116.426,410.313 
			103.311,410.313 		"/>
		<polygon fill-rule="evenodd" clip-rule="evenodd" points="455.006,484.36 466.069,484.36 466.069,474.297 454.944,474.297 
			454.944,469.79 467.672,469.79 467.672,458.92 439.633,458.92 439.633,500.483 468.122,500.483 468.122,488.989 455.006,488.989 
					"/>
		<polygon fill-rule="evenodd" clip-rule="evenodd" points="150.445,484.36 161.508,484.36 161.508,474.297 150.383,474.297 
			150.383,469.79 163.111,469.79 163.111,458.92 135.072,458.92 135.072,500.483 163.561,500.483 163.561,488.989 150.445,488.989 
					"/>
		<path fill-rule="evenodd" clip-rule="evenodd" d="M163.821,380.684v12.213h8.615v29.271c0.002,0.02,0.003,0.041,0.005,0.061
			h15.103v-29h7.879v-12.545H163.821z"/>
		<path fill-rule="evenodd" clip-rule="evenodd" d="M438.077,380.684v12.213h8.615v29.271c0.002,0.02,0.002,0.041,0.004,0.061
			h15.104v-29h7.879v-12.545H438.077z"/>
		<path fill-rule="evenodd" clip-rule="evenodd" d="M226.018,380.112h-17.156c-4.774,13.768-9.537,27.494-14.492,41.783h15.385
			c0.157-0.018,0.473-0.045,0.473-0.045l2.01-4.777h10.66l2.142,4.822h15.938C235.809,407.459,230.904,393.762,226.018,380.112z
			 M214.818,406.815l3.043-12.215l2.824,12.146L214.818,406.815z"/>
		<path fill-rule="evenodd" clip-rule="evenodd" d="M366.385,380.112h-17.156c-4.775,13.768-9.537,27.494-14.492,41.783h15.385
			c0.156-0.018,0.473-0.045,0.473-0.045l2.01-4.777h10.66l2.141,4.822h15.939C376.176,407.459,371.272,393.762,366.385,380.112z
			 M355.186,406.815l3.043-12.215l2.824,12.146L355.186,406.815z"/>
		<rect x="31.367" y="438.817" fill-rule="evenodd" clip-rule="evenodd" width="449.266" height="2.639"/>
		<polygon fill-rule="evenodd" clip-rule="evenodd" points="401.43,421.883 387.086,421.883 387.086,380.301 401.702,380.301 
			414.967,402.364 414.967,380.301 429.102,380.301 429.102,422.229 414.754,422.229 401.393,400.436 		"/>
		<polygon fill-rule="evenodd" clip-rule="evenodd" points="267.754,458.278 267.754,472.002 258.114,472.002 258.114,458.278 
			243.715,458.278 243.715,500.086 258.114,500.086 258.114,486.221 267.754,486.221 267.754,500.086 282.153,500.086 
			282.153,458.278 		"/>
		<path fill-rule="evenodd" clip-rule="evenodd" d="M332.657,464.422c-4.742-4.752-10.58-6.695-18.146-6.609
			c-0.537,0.035-2.039,0.074-3.525,0.238c-10.004,1.102-17.594,8.539-18.877,18.939c-1.137,9.207,3.199,18.418,13.111,22.285
			c7.004,2.732,14.031,2.648,20.889-0.256C339.711,493.264,343.127,474.913,332.657,464.422z M315.362,488.124
			c-4.787,0-8.666-3.881-8.666-8.668c0-4.785,3.879-8.666,8.666-8.666s8.666,3.881,8.666,8.666
			C324.028,484.243,320.149,488.124,315.362,488.124z"/>
		<path fill-rule="evenodd" clip-rule="evenodd" d="M74.487,480.317c-0.791-0.574-1.64-1.064-2.614-1.691
			c2.4-1.396,4.181-3.057,4.784-5.693c1.146-5.016,0.212-11.633-8.041-13.736c-4.407-1.123-8.905-1.047-13.402-1.014
			c-4.104,0.033-8.208,0.008-12.453,0.008v41.967h24.786c2.039-0.031,3.888-0.824,5.652-1.76
			C80.527,494.512,81.188,485.168,74.487,480.317z M62.585,469.788c1.167,1.381,0.565,2.742-0.618,3.965
			c-0.969,0.963-4.794,0.174-4.794,0.174l-0.052-5.172C57.122,468.754,61.164,468.106,62.585,469.788z M63.895,489.315
			c-1.804,1.848-6.804,0.607-6.804,0.607l-0.111-6.084c0,0,5.536-0.627,6.827,0.693C65.118,486.272,64.945,487.764,63.895,489.315z"
			/>
		<path fill-rule="evenodd" clip-rule="evenodd" d="M220.363,458.325l-5.965,24.066c0,0-3.862-16.209-5.728-24.066h-11.691
			c-1.952,7.877-6.052,24.418-6.052,24.418l-5.693-24.303H169.74c4.944,14.086,14.636,41.705,14.636,41.705h12.935l5.76-22.484
			l4.893,22.5h13.441l14.436-41.836H220.363z"/>
	</g>
</g>
</svg>
