<?xml version="1.0" encoding="utf-8"?>
<!-- Generator: Adobe Illustrator 16.0.0, SVG Export Plug-In . SVG Version: 6.00 Build 0)  -->
<!DOCTYPE svg PUBLIC "-//W3C//DTD SVG 1.1//EN" "http://www.w3.org/Graphics/SVG/1.1/DTD/svg11.dtd">
<svg version="1.1" id="Layer_1" xmlns="http://www.w3.org/2000/svg" xmlns:xlink="http://www.w3.org/1999/xlink" x="0px" y="0px"
	 width="512px" height="512px" viewBox="0 0 512 512" enable-background="new 0 0 512 512" xml:space="preserve">
<g>
	<path d="M279.956,242.128v41.616h-24.57v-84.807h20.083l56.185,47.061c3.679,2.837,6.138,5.715,9.279,9.201l0.04-13.312v-42.95
		h24.695v84.807h-20.206l-58.948-48.152c-2.189-1.806-3.742-3.705-6.512-6.719L279.956,242.128L279.956,242.128z"/>
	<polygon points="484.309,198.885 454.578,198.885 425.662,227.822 396.743,198.885 367.017,198.885 413.278,245.229 
		413.276,245.231 413.276,283.692 438.046,283.692 438.046,245.231 438.046,245.229 484.309,198.885 	"/>
	<path d="M27.691,198.879h57.293c33.308,0,52.355,15.612,52.355,41.91c0,15.943-8.693,29.091-21.121,36.32
		c-8.626,5.097-20.706,6.577-36.582,6.577H27.691V198.879L27.691,198.879z M76.806,263.956c20.746,0,35.202-3.338,35.202-22.627
		c0-15.44-8.8-23.676-26.248-23.676H52.875v46.303H76.806L76.806,263.956z"/>
	<polygon points="165.649,254.162 165.649,283.602 140.501,283.602 140.501,198.793 165.649,198.793 165.649,230.708 
		217.17,198.793 251.408,198.793 193.587,236.925 253.533,283.602 220.799,283.602 174.206,248.542 165.649,254.162 	"/>
	<path d="M27.808,296.001h9.951c6.266,0,10.784,2.749,10.784,8.245c0,6.835-6.236,8.545-11.559,8.545h-9.175V296.001L27.808,296.001
		z M30.247,310.988h7.122c1.998,0,8.676-0.206,8.676-6.812c0-4.919-4.184-6.373-8.287-6.373h-7.511V310.988L30.247,310.988z"/>
	<path d="M62.898,295.585c6.846,0,11.808,3.325,11.808,8.914c0,5.961-5.986,8.708-11.808,8.708c-5.819,0-11.806-2.747-11.806-8.708
		C51.092,298.91,56.051,295.585,62.898,295.585L62.898,295.585z M62.898,311.406c4.907,0,9.314-2.171,9.314-7.275
		c0-3.74-3.464-6.836-9.314-6.836c-5.848,0-9.312,3.096-9.312,6.836C53.585,309.235,57.938,311.406,62.898,311.406L62.898,311.406z"
		/>
	<polygon points="78.614,296.001 82.078,296.001 97.076,309.812 97.076,296.001 99.514,296.001 99.514,312.791 97.076,312.791 
		80.943,297.804 80.943,312.791 78.614,312.791 78.614,296.001 	"/>
	<polygon points="104.781,296.001 108.245,296.001 123.242,309.812 123.242,296.001 125.681,296.001 125.681,312.791 
		123.242,312.791 107.11,297.804 107.11,312.791 104.781,312.791 104.781,296.001 	"/>
	<path d="M139.15,296.001h2.994l10.337,16.79h-2.744l-2.604-4.363h-13l-2.634,4.363h-2.714L139.15,296.001L139.15,296.001z
		 M146.053,306.624l-5.406-9.029l-5.404,9.029H146.053L146.053,306.624z"/>
	<polygon points="165.594,296.001 168.033,296.001 168.033,304.94 181.781,296.001 185.521,296.001 175.684,302.33 186.993,312.791 
		183.691,312.791 173.77,303.553 168.033,307.295 168.033,312.791 165.594,312.791 165.594,296.001 	"/>
	<path d="M198.438,296.001h2.994l10.339,16.79h-2.743l-2.605-4.363h-13.001l-2.634,4.363h-2.715L198.438,296.001L198.438,296.001z
		 M205.34,306.624l-5.405-9.029l-5.405,9.029H205.34L205.34,306.624z"/>
	<path d="M214.876,296.001h11.639c3.218,0,7.93,0.577,7.93,4.688c0,3.512-3.911,4.527-6.35,4.62l6.654,7.482h-3.021l-6.487-7.436
		h-7.927v7.436h-2.438V296.001L214.876,296.001z M217.314,303.553h8.647c3.522,0,6.155-0.415,6.155-2.887
		c0-2.448-2.633-2.862-6.155-2.862h-8.647V303.553L217.314,303.553z"/>
	<path d="M247.721,296.001h2.994l10.339,16.79h-2.744l-2.604-4.363h-13.002l-2.634,4.363h-2.714L247.721,296.001L247.721,296.001z
		 M254.622,306.624l-5.403-9.029l-5.407,9.029H254.622L254.622,306.624z"/>
	<polygon points="264.16,296.001 267.622,296.001 282.618,309.812 282.618,296.001 285.061,296.001 285.061,312.791 
		282.618,312.791 266.486,297.804 266.486,312.791 264.16,312.791 264.16,296.001 	"/>
	<polygon points="300.333,296.001 303.794,296.001 318.791,309.812 318.791,296.001 321.23,296.001 321.23,312.791 318.791,312.791 
		302.659,297.804 302.659,312.791 300.333,312.791 300.333,296.001 	"/>
	<polygon points="326.497,296.001 344.455,296.001 344.455,297.804 328.934,297.804 328.934,303.161 341.909,303.161 
		341.909,304.964 328.934,304.964 328.934,310.988 344.786,310.988 344.786,312.791 326.497,312.791 326.497,296.001 	"/>
	<polygon points="345.73,296.001 348.309,296.001 353.079,309.627 353.131,309.627 358.094,296.001 360.422,296.001 365.41,309.558 
		365.469,309.558 370.291,296.001 372.841,296.001 366.578,312.791 364.247,312.791 359.342,299.096 359.287,299.096 
		354.354,312.791 352.025,312.791 345.73,296.001 	"/>
	<polygon points="391.467,306.003 381.072,296.001 384.262,296.001 392.687,304.2 401.115,296.001 404.301,296.001 393.906,306.003 
		393.906,312.791 391.467,312.791 391.467,306.003 	"/>
	<path d="M417.053,295.585c6.848,0,11.81,3.325,11.81,8.914c0,5.961-5.988,8.708-11.81,8.708s-11.806-2.747-11.806-8.708
		C405.247,298.91,410.21,295.585,417.053,295.585L417.053,295.585z M417.053,311.406c4.907,0,9.315-2.171,9.315-7.275
		c0-3.74-3.464-6.836-9.315-6.836c-5.848,0-9.314,3.096-9.314,6.836C407.738,309.235,412.094,311.406,417.053,311.406
		L417.053,311.406z"/>
	<path d="M432.768,296.001h11.644c3.217,0,7.927,0.577,7.927,4.688c0,3.512-3.906,4.527-6.348,4.62l6.655,7.482h-3.023l-6.489-7.436
		h-7.924v7.436h-2.441V296.001L432.768,296.001z M435.209,303.553h8.647c3.519,0,6.155-0.415,6.155-2.887
		c0-2.448-2.637-2.862-6.155-2.862h-8.647V303.553L435.209,303.553z"/>
	<polygon points="457.41,296.001 459.853,296.001 459.853,304.94 473.597,296.001 477.34,296.001 467.503,302.33 478.81,312.791 
		475.511,312.791 465.587,303.553 459.853,307.295 459.853,312.791 457.41,312.791 457.41,296.001 	"/>
</g>
</svg>
