<svg class="spotify-brands-logo" x="0px" y="0px" viewBox="0 0 518 118" style="enable-background:new 0 0 518 118;" xml:space="preserve">
    <g>
        <path fill="#ffffff" class="st0" d="M273.7,76.7c-2.3,0-4.1-1.9-4.1-4.1c0-2.3,1.8-4.2,4.2-4.2c2.3,0,4.1,1.9,4.1,4.1
            C277.9,74.8,276.1,76.7,273.7,76.7 M273.8,68.8c-2.1,0-3.7,1.7-3.7,3.8c0,2.1,1.6,3.7,3.7,3.7c2.1,0,3.7-1.7,3.7-3.8
            C277.5,70.5,275.9,68.8,273.8,68.8 M274.7,73l1.2,1.6h-1l-1.1-1.5h-0.9v1.5h-0.8v-4.4h1.9c1,0,1.7,0.5,1.7,1.4
        C275.7,72.3,275.3,72.8,274.7,73 M274,71h-1.1v1.4h1.1c0.5,0,0.9-0.3,0.9-0.7C274.8,71.2,274.5,71,274,71"></path>
        <path fill="#ffffff" class="st0" d="M352.6,76.7V42h10.9c6.4,0,10.6,3.6,10.6,9.3c0,3.5-1.9,6.3-5,7.6c3.6,1,6.1,4.5,6.1,8.4
            c0,5.5-4.4,9.4-10.7,9.4H352.6z M364.1,73.7c4.6,0,7.7-2.6,7.7-6.6c0-3.9-2.8-6.5-7-6.5h-8.9v13.1H364.1z M364.2,57.7
        c3.7,0,6.4-2.6,6.4-6.2c0-4.1-2.8-6.5-7.5-6.5h-7.3v12.7H364.2z"></path>
        <path fill="#ffffff" class="st0" d="M66.6,20.9c-21.1,0-38.1,17.1-38.1,38.1c0,21.1,17.1,38.1,38.1,38.1c21.1,0,38.1-17.1,38.1-38.1
            C104.7,37.9,87.6,20.9,66.6,20.9 M84.1,75.9c-0.7,1.1-2.1,1.5-3.3,0.8c-9-5.5-20.2-6.7-33.5-3.7c-1.3,0.3-2.6-0.5-2.8-1.8
            c-0.3-1.3,0.5-2.6,1.8-2.8c14.5-3.3,27-1.9,37,4.2C84.4,73.3,84.8,74.7,84.1,75.9 M88.7,65.5c-0.9,1.4-2.7,1.8-4.1,1
            c-10.2-6.3-25.9-8.1-38-4.4c-1.6,0.5-3.2-0.4-3.7-2c-0.5-1.6,0.4-3.2,2-3.7c13.8-4.2,31.1-2.2,42.8,5.1
            C89.2,62.3,89.6,64.1,88.7,65.5 M89.1,54.7c-12.3-7.3-32.6-8-44.3-4.4c-1.9,0.6-3.9-0.5-4.4-2.4c-0.6-1.9,0.5-3.9,2.4-4.4
        c13.5-4.1,35.9-3.3,50,5.1c1.7,1,2.3,3.2,1.2,4.9C93,55.1,90.8,55.7,89.1,54.7"></path>
        <path fill="#ffffff" class="st0" d="M132.2,56.1c-6.6-1.6-7.8-2.7-7.8-5c0-2.2,2.1-3.7,5.1-3.7c3,0,5.9,1.1,9,3.4c0.1,0.1,0.2,0.1,0.3,0.1
            c0.1,0,0.2-0.1,0.3-0.2l3.2-4.5c0.1-0.2,0.1-0.4-0.1-0.6c-3.7-2.9-7.8-4.4-12.6-4.4c-7.1,0-12.1,4.3-12.1,10.4
            c0,6.5,4.3,8.9,11.7,10.7c6.3,1.5,7.4,2.7,7.4,4.8c0,2.4-2.2,3.9-5.6,3.9c-3.8,0-7-1.3-10.5-4.3c-0.1-0.1-0.2-0.1-0.3-0.1
            c-0.1,0-0.2,0.1-0.3,0.2l-3.6,4.3c-0.2,0.2-0.1,0.4,0,0.6c4.1,3.6,9.1,5.6,14.5,5.6c7.7,0,12.6-4.2,12.6-10.7
        C143.5,61,140.2,58,132.2,56.1"></path>
        <path fill="#ffffff" class="st0" d="M160.8,49.6c-3.3,0-6,1.3-8.3,4v-3c0-0.2-0.2-0.4-0.4-0.4h-5.9c-0.2,0-0.4,0.2-0.4,0.4v33.5
            c0,0.2,0.2,0.4,0.4,0.4h5.9c0.2,0,0.4-0.2,0.4-0.4V73.5c2.2,2.5,5,3.8,8.3,3.8c6.2,0,12.4-4.7,12.4-13.8
            C173.2,54.3,167,49.6,160.8,49.6 M166.4,63.4c0,4.6-2.8,7.8-6.9,7.8c-4,0-7.1-3.4-7.1-7.8c0-4.5,3-7.8,7.1-7.8
        C163.5,55.6,166.4,58.9,166.4,63.4"></path>
        <path fill="#ffffff" class="st0" d="M189.2,49.6c-7.9,0-14.2,6.1-14.2,13.9c0,7.7,6.2,13.8,14.1,13.8c8,0,14.2-6.1,14.2-13.9
            C203.4,55.7,197.2,49.6,189.2,49.6 M189.2,71.3c-4.2,0-7.4-3.4-7.4-7.9c0-4.5,3.1-7.8,7.3-7.8c4.3,0,7.5,3.4,7.5,7.9
        C196.6,68,193.5,71.3,189.2,71.3"></path>
        <path fill="#ffffff" class="st0" d="M220.3,50.1h-6.5v-6.6c0-0.2-0.2-0.4-0.4-0.4h-5.9c-0.2,0-0.4,0.2-0.4,0.4v6.6h-2.8c-0.2,0-0.4,0.2-0.4,0.4
            v5.1c0,0.2,0.2,0.4,0.4,0.4h2.8v13.1c0,5.3,2.6,8,7.8,8c2.1,0,3.9-0.4,5.5-1.4c0.1-0.1,0.2-0.2,0.2-0.4v-4.8c0-0.1-0.1-0.3-0.2-0.4
            c-0.1-0.1-0.3-0.1-0.4,0c-1.1,0.6-2.2,0.8-3.5,0.8c-1.9,0-2.7-0.9-2.7-2.8V56h6.5c0.2,0,0.4-0.2,0.4-0.4v-5.1
        C220.8,50.3,220.6,50.1,220.3,50.1"></path>
        <path fill="#ffffff" class="st0" d="M242.9,50.1v-0.8c0-2.4,0.9-3.5,3-3.5c1.2,0,2.2,0.2,3.3,0.6c0.1,0,0.3,0,0.4-0.1c0.1-0.1,0.2-0.2,0.2-0.4v-5
            c0-0.2-0.1-0.4-0.3-0.4c-1.2-0.3-2.7-0.7-4.9-0.7c-5.4,0-8.3,3.1-8.3,8.9v1.2h-2.8c-0.2,0-0.4,0.2-0.4,0.4v5.1
            c0,0.2,0.2,0.4,0.4,0.4h2.8v20.2c0,0.2,0.2,0.4,0.4,0.4h5.9c0.2,0,0.4-0.2,0.4-0.4V56h5.5l8.4,20.2c-1,2.1-1.9,2.5-3.2,2.5
            c-1,0-2.1-0.3-3.2-0.9c-0.1-0.1-0.2-0.1-0.3,0c-0.1,0-0.2,0.1-0.3,0.2l-2,4.4c-0.1,0.2,0,0.4,0.2,0.6c2.1,1.1,4,1.6,6.3,1.6
            c4.4,0,6.8-2,8.9-7.5l10.2-26.4c0.1-0.1,0-0.3,0-0.4c-0.1-0.1-0.2-0.2-0.4-0.2H267c-0.2,0-0.3,0.1-0.4,0.3l-6.3,18l-6.9-18
        c-0.1-0.2-0.2-0.3-0.4-0.3H242.9z"></path>
        <path fill="#ffffff" class="st0" d="M229.8,50.1h-5.9c-0.2,0-0.4,0.2-0.4,0.4v25.7c0,0.2,0.2,0.4,0.4,0.4h5.9c0.2,0,0.4-0.2,0.4-0.4V50.5
        C230.3,50.3,230.1,50.1,229.8,50.1"></path>
        <path fill="#ffffff" class="st0" d="M226.9,38.4c-2.3,0-4.2,1.9-4.2,4.2c0,2.3,1.9,4.2,4.2,4.2c2.3,0,4.2-1.9,4.2-4.2
        C231.1,40.3,229.2,38.4,226.9,38.4"></path>
        <path fill="#ffffff" class="st0" d="M291.5,53.2v23.5h-3.3V53.2h-5.4v-3h5.4V47c0-5.6,3.4-8.5,7.9-8.5c1.4,0,2.4,0.3,3,0.6v3
        c-0.5-0.2-1.3-0.4-2.5-0.4c-2.7,0-5,1.4-5,5.6v3h7.4v3H291.5z"></path>
        <path fill="#ffffff" class="st0" d="M298.3,63.5c0-8.3,5.7-13.9,13.1-13.9c7.4,0,13.1,5.6,13.1,13.9c0,8.3-5.8,13.9-13.1,13.9
            C304.1,77.4,298.3,71.7,298.3,63.5 M311.4,74.4c5.2,0,9.8-4,9.8-10.9c0-6.9-4.5-10.9-9.8-10.9c-5.2,0-9.8,4-9.8,10.9
        C301.7,70.3,306.2,74.4,311.4,74.4"></path>
        <path fill="#ffffff" class="st0" d="M341.5,53.6c-0.6-0.2-1.4-0.3-2.3-0.3c-4.5,0-7.8,2.9-7.8,8.9v14.4H328V50.2h3.3v4.9c1.6-3.7,4.7-5.3,8.2-5.3
        c0.9,0,1.6,0.1,2.1,0.3V53.6z"></path>
        <path fill="#ffffff" class="st0" d="M391.5,53.6c-0.6-0.2-1.4-0.3-2.3-0.3c-4.5,0-7.8,2.9-7.8,8.9v14.4h-3.3V50.2h3.3v4.9c1.6-3.7,4.7-5.3,8.2-5.3
        c0.9,0,1.6,0.1,2.1,0.3V53.6z"></path>
        <path fill="#ffffff" class="st0" d="M392.4,69.8c0-4.5,3.1-7.1,7.9-7.8l7-1.1c2.3-0.3,2.8-1.3,2.8-2.6c0-3.5-2.3-6-6.7-6c-4.2,0-7,2.3-7.4,6.2
            l-3.1-0.7c0.6-5,4.8-8.4,10.5-8.4c6.9,0,10,4.2,10,9.2v13.4c0,2.1,0.2,3.4,0.4,4.5h-3.3c-0.1-0.6-0.3-2.4-0.3-4.5
            c-1.2,2.5-4.4,5.2-9.2,5.2C395.5,77.3,392.4,73.7,392.4,69.8 M410.1,65.8v-3c-0.2,0.2-0.9,0.5-1.9,0.7l-7.4,1.1c-3.1,0.4-5,2.2-5,5
        c0,2.4,2,4.8,5.7,4.8C406.5,74.5,410.1,71.2,410.1,65.8"></path>
        <path fill="#ffffff" class="st0" d="M420.7,76.7h-3.3V50.2h3.2v4.2c1.4-2.8,4.5-4.9,8.6-4.9c6.2,0,9.4,4.4,9.4,9.9v17.2h-3.3V60
        c0-4.2-2.1-7.4-7.2-7.4c-4.5,0-7.4,3.8-7.4,8.3V76.7z"></path>
        <path fill="#ffffff" class="st0" d="M463.1,71.4c-1.2,2.7-4.1,5.9-9.3,5.9c-7.4,0-12.2-6.1-12.2-14c0-7.8,4.9-13.9,12.2-13.9
            c5.7,0,8.3,3.4,9.2,5.7V38.9h3.3v32.7c0,2.8,0.2,4.8,0.3,5h-3.3c-0.1-0.7-0.3-2.3-0.3-4.2V71.4z M454.2,74.4c5.5,0,9-4.8,9-11
        c0-6.3-3.5-10.9-8.9-10.9c-5.5,0-9.2,4.5-9.2,10.9C445,69.6,448.6,74.4,454.2,74.4"></path>
        <path fill="#ffffff" class="st0" d="M473.1,68.7c0.5,3.2,2.9,5.8,7.3,5.8c3.3,0,5.9-1.9,5.9-4.7c0-2.4-1.7-3.8-4.5-4.4l-4.3-1
            c-3.9-0.9-6.5-3.2-6.5-7c0-4.3,4.1-7.8,8.9-7.8c6.2,0,8.8,3.7,9.5,6.8l-2.9,1.1c-0.5-2.6-2.3-5-6.5-5c-3,0-5.7,1.9-5.7,4.7
        c0,2.3,1.4,3.6,4.2,4.2l4.2,0.9c4.4,1,6.9,3.5,6.9,7.3c0,3.9-3.3,7.8-9.2,7.8c-6.5,0-9.8-4.2-10.3-7.7L473.1,68.7z"></path>
    </g>
</svg>