<?xml version="1.0" encoding="UTF-8"?>
<svg width="60px" height="60px" viewBox="0 0 60 60" version="1.1" xmlns="http://www.w3.org/2000/svg" xmlns:xlink="http://www.w3.org/1999/xlink">
    <!-- Generator: Sketch 44.1 (41455) - http://www.bohemiancoding.com/sketch -->
    <title>att</title>
    <desc>Created with Sketch.</desc>
    <defs>
        <circle id="path-1" cx="26" cy="26" r="26"></circle>
        <filter x="-17.3%" y="-17.3%" width="134.6%" height="134.6%" filterUnits="objectBoundingBox" id="filter-3">
            <feOffset dx="0" dy="0" in="SourceAlpha" result="shadowOffsetOuter1"></feOffset>
            <feGaussianBlur stdDeviation="3" in="shadowOffsetOuter1" result="shadowBlurOuter1"></feGaussianBlur>
            <feColorMatrix values="0 0 0 0 0   0 0 0 0 0   0 0 0 0 0  0 0 0 0.154098732 0" type="matrix" in="shadowBlurOuter1"></feColorMatrix>
        </filter>
    </defs>
    <g id="Logo-Building" stroke="none" stroke-width="1" fill="none" fill-rule="evenodd">
        <g id="Brand-Map-Pins">
            <g id="att" transform="translate(4.000000, 4.000000)">
                <g id="Dropshadow">
                    <mask id="mask-2" fill="white">
                        <use xlink:href="#path-1"></use>
                    </mask>
                    <g>
                        <use fill="black" fill-opacity="1" filter="url(#filter-3)" xlink:href="#path-1"></use>
                        <use fill="#FFFFFF" fill-rule="evenodd" xlink:href="#path-1"></use>
                    </g>
                </g>
                <circle id="Mask" fill="#00A8E0" cx="26.3333333" cy="26.3333333" r="23"></circle>
                <path d="M16.8017144,37.7697498 C19.3447748,39.7391117 22.53675,40.9223783 25.9998906,40.9223783 C29.7897137,40.9223783 33.2446836,39.5147633 35.8814882,37.2041348 C35.9134415,37.1758905 35.8976837,37.157207 35.8661682,37.1758905 C34.6829473,37.9664378 31.3106329,39.6921109 26.0000365,39.6921109 C21.3848988,39.6921109 18.4683203,38.6619618 16.8212657,37.7422354 C16.7897501,37.7266901 16.7780777,37.7503364 16.8017144,37.7697498 M27.0180923,38.5365048 C30.7093562,38.5365048 34.7656028,37.5298561 37.191574,35.5372127 C37.8554441,34.9942953 38.4877987,34.2716948 39.054131,33.3005886 C39.3801568,32.741834 39.6990334,32.0779844 39.9587452,31.4254472 C39.9702717,31.3936268 39.9506475,31.3781545 39.9267189,31.4139159 C37.6707277,34.7352071 31.1378807,36.8068176 24.3923764,36.8068176 C19.6244027,36.8068176 14.4941455,35.2814817 12.4856101,32.368966 C12.4658399,32.3420354 12.4460697,32.3535666 12.4581069,32.3845112 C14.3291993,36.3630836 20.0056538,38.5365048 27.0180923,38.5365048 M22.9850447,31.9362522 C15.3079336,31.9362522 11.6880175,28.3592301 11.0313697,25.9181818 C11.0232719,25.8828582 11,25.8905943 11,25.9223418 C11,26.7441256 11.0822178,27.8046355 11.2236732,28.5085524 C11.2911545,28.8512056 11.569907,29.3889413 11.9785884,29.817568 C13.8375707,31.7560583 18.4722597,34.4723239 26.4988145,34.4723239 C37.4346526,34.4723239 39.9351085,30.8280118 40.4457049,29.6295649 C40.8108335,28.7724574 41,27.2235482 41,25.9224148 C41,25.6075679 40.9921211,25.3560699 40.9802298,25.1091699 C40.9802298,25.0691024 40.9570308,25.0658182 40.949006,25.1048639 C40.4025169,28.0373769 31.0590917,31.9362522 22.9850447,31.9362522 M12.4460697,19.4873218 C12.0061645,20.3607043 11.5185482,21.8341496 11.3735911,22.5967446 C11.3100492,22.9234876 11.3371147,23.0804001 11.4516506,23.3242349 C12.3718038,25.2773217 17.0261171,28.4022898 27.8828014,28.4022898 C34.5061827,28.4022898 39.6513952,26.7744134 40.4849535,23.8038035 C40.6384461,23.256945 40.6466898,22.6795798 40.4494984,21.9015855 C40.2291811,21.032217 39.8165603,20.018416 39.4673354,19.306544 C39.4558089,19.2833355 39.435455,19.2867657 39.4396134,19.3142071 C39.5693234,23.2104551 28.7083349,25.7215667 23.2283421,25.7215667 C17.2925406,25.7215667 12.3404341,23.3556174 12.3404341,20.3681486 C12.3404341,20.0811081 12.3998176,19.7939946 12.4739376,19.4952039 C12.4813788,19.4679084 12.4580339,19.4633835 12.4460697,19.4873218 M35.9057815,14.7035327 C35.9688127,14.8023511 36.0002553,14.9078109 36.0002553,15.0497621 C36.0002553,16.7163922 30.9015138,19.6647425 22.7850082,19.6647425 C16.8212657,19.6647425 15.7047237,17.4514728 15.7047237,16.0439307 C15.7047237,15.5407888 15.8976108,15.0259697 16.3224147,14.5031225 C16.3456137,14.472032 16.3259165,14.4600628 16.2991428,14.4831983 C15.5243845,15.1400415 14.8125114,15.8791361 14.1880357,16.6769816 C13.8896589,17.0543016 13.7044319,17.3885618 13.7044319,17.588826 C13.7044319,20.5057207 21.015466,22.6206099 27.8515047,22.6206099 C35.1354003,22.6206099 38.3861755,20.2418157 38.3861755,18.1513027 C38.3861755,17.4041801 38.0954587,16.9680362 37.3517782,16.12246 C36.8690498,15.5723903 36.4124384,15.1244962 35.9291264,14.6836085 C35.9057815,14.6643411 35.889513,14.6800323 35.9057815,14.7035327 M33.6727704,13.0372674 C31.4248039,11.6892792 28.8143352,10.9223783 26.0000365,10.9223783 C23.1661134,10.9223783 20.4770016,11.7160638 18.2209374,13.0997405 C17.5442276,13.5163981 17.1633412,13.8502934 17.1633412,14.2795039 C17.1633412,15.5447299 20.1190224,16.9051252 25.3627941,16.9051252 C30.552143,16.9051252 34.5770928,15.4150399 34.5770928,13.9807132 C34.5770928,13.638352 34.2779865,13.3988231 33.6727704,13.0372674" id="path9" fill="#FFFFFF" fill-rule="nonzero"></path>
                <g id="White-Padding" transform="translate(1.000000, 1.000000)" stroke-width="4" stroke="#FFFFFF">
                    <circle cx="25" cy="25" r="23.2758621"></circle>
                </g>
                <g id="Outer-Boarder" stroke="#C4CBCF">
                    <circle cx="26" cy="26" r="25.5"></circle>
                </g>
            </g>
        </g>
    </g>
</svg>