<svg xmlns="http://www.w3.org/2000/svg" width="512" height="512" viewBox="0 0 512 512">
  <g fill="none" fill-rule="evenodd">
    <rect width="555" height="527" x="-21" y="-6" fill="#FC9F00"/>
    <g transform="translate(16 207)">
      <path fill="#FFFFFF" d="M426.7265 46.916575C426.293731 46.916575 424.679171 47.0102575 424.101592 47.0838653 424.026689 47.0939027 423.846924 47.1039401 423.785338 47.0704821 423.673817 47.0119304 423.537328 46.9015188 423.442452 46.7911072 423.380866 46.7191724 423.354234 46.5050407 423.384194 46.431433 423.440787 46.2875633 423.527341 46.0968523 423.54565 46.0684129 424.001722 45.2955316 424.454465 44.5075941 424.800679 43.6309927L425.413213 42.3060533 425.413213 42.3043804C425.546373 42.0250055 426.138933 40.8422628 426.222158 40.5428131 426.235474 40.492626 426.460181 39.8468853 426.460181 39.8468853 426.528425 39.7214176 427.465535 36.2367599 427.465535 36.2367599 427.620333 35.9891702 427.768473 35.7365617 427.86335 35.4605327 427.888317 35.3835791 428.797131 32.8892802 428.797131 32.8892802L428.797131 32.8876073 428.798796 32.8859344 428.797131 32.8876073C428.862046 32.7688312 429.299809 31.8002201 429.331434 31.6680608 429.637701 30.8198987 429.869066 29.6137354 429.975593 29.3360335 430.080457 29.0583315 430.145372 28.9713405 430.469948 28.9596302L432.15941 28.9930883C432.15941 28.9930883 432.580528 28.9930883 432.678733 29.5802773 432.680397 29.5903148 433.076547 30.9035439 433.414439 31.7985472L434.211732 34.4400616 434.398156 34.8984372 435.353576 37.0196786C435.415162 37.2806516 435.942807 39.1526304 436.079295 39.3985472L437.041373 41.5432093 438.10665 43.9789566C438.387949 44.6916135 439.281783 45.96302 439.609689 46.4431433 439.686255 46.5552278 439.686255 46.7492846 439.62134 46.829584 439.524799 46.9466872 439.386646 47.0821924 439.275125 47.1742021 439.201887 47.2360995 438.807402 47.2494827 438.807402 47.2494827L436.768396 47.0035659C436.768396 47.0035659 427.658617 46.916575 426.7265 46.916575L426.7265 46.916575zM479.244636 67.014836C477.471949 62.8559982 474.449227 58.0765133 472.674875 53.8106097 464.362389 36.7587057 457.864202 21.294387 449.731481 4.8698217 449.210494 4.23077262 449.004097 3.05806736 447.960458 2.73854281 445.447071 2.62813119 442.565831 2.66326216 439.523135 2.7803654 435.495058 2.93594541 431.180688 2.53779441 427.051076 2.82553379 422.681778 3.1316751 418.613753 3.2287035 415.038418 3.26885318L414.412568 3.69544354C407.323485 17.5604667 403.072366 28.6668721 396.579172 42.761083 392.617675 49.2670042 389.688164 57.6633062 385.936393 64.2762932 385.413742 65.9826546 383.01687 67.3694915 384.058843 69.2883117 387.186429 69.5024433 390.210816 69.6078362 393.025476 69.2883117 398.864523 69.6078362 404.388981 69.2883117 409.915104 69.2883117 412.103914 68.7563284 414.918575 70.1414924 416.273473 67.7960819 417.10905 65.9826546 417.630036 64.0638345 418.567147 62.2504072 418.984935 60.5440458 420.965684 60.8635703 422.320582 60.7565045 425.136907 61.077702 427.741842 60.1157825 430.766228 60.6494387L431.184017 60.6494387C435.145514 60.3299142 439.168597 60.7230464 442.920368 60.5105877 444.430065 60.6845697 444.158753 63.1303544 444.887801 64.0906009 445.305589 65.7986353 446.17612 67.6304645 447.010032 69.0173013 448.887582 69.7634162 451.076392 69.0173013 452.952278 69.4438917 460.875273 69.0173013 466.31817 69.5743782 474.137966 69.3602465 475.4912 69.1477878 477.347112 69.3853401 478.515587 69.2548536 479.402763 69.1544794 479.454362 67.8680167 479.244636 67.014836L479.244636 67.014836zM261.282387 44.0107418C260.601609 44.9726612 257.563906 47.0219679 256.541906 47.2344266 255.408385 47.9838873 254.121731 48.111028 253.003191 48.5493286 251.641634 48.335197 248.747078 48.8688532 247.385521 48.8688532 243.415701 48.2281312 237.047345 48.7617874 234.09786 45.7706361 229.10937 42.1387629 227.925914 35.6161127 230.70562 30.0202509 232.065512 26.4937706 236.007035 24.1450143 239.975191 24.0379485 240.76749 24.4645389 241.676304 23.9308827 242.468604 23.8238169 244.169717 24.357473 249.827335 23.4390491 251.530113 23.9727053 253.570783 24.2939027 256.410411 24.6669602 257.996675 25.950077 260.378566 27.0157165 261.780071 29.1553599 262.798742 31.2916575 264.062093 34.8532688 264.0055 39.9522782 261.282387 44.0107418L261.282387 44.0107418zM290.427689 24.9078582C288.287149 19.5813339 285.600654 14.0323134 281.214711 10.1177196 278.867773 8.27083425 276.351057 6.22487343 273.596319 5.24622496 271.147847 3.94303324 268.086841 3.27387189 265.431972 2.51270086 263.695904 2.40563504 261.96483 1.64279111 260.230426 1.96900726 258.188091 1.96900726 256.147421 1.53405239 254.413018 1.86194145L241.571441 1.96900726C240.551106 1.64279111 239.529106 2.40563504 238.61197 1.86194145 235.44943 2.1864847 231.879089 2.1864847 228.816418 2.51270086 223.002339 3.38428351 217.083395 4.4699978 212.391185 8.4933304 211.677117 9.03535109 210.656782 9.25282853 210.350515 10.231477 205.350373 15.1230464 201.676833 21.103676 200.351895 27.9525424 199.840895 31.7567246 199.126827 35.3451024 199.741025 39.1492846 199.433094 41.5415364 200.453429 43.7163108 200.658162 45.9998239 201.167497 47.3046885 201.167497 48.9340964 201.881566 50.238961 203.309702 55.2392692 206.880043 59.6975567 211.064583 63.0667841 212.391185 64.3716487 213.819321 65.2415584 215.452191 65.8939908 217.391327 67.4163328 219.635066 68.0687651 221.77727 68.937002 223.714742 69.264891 225.960146 69.4806956 228.002481 69.9156505 229.73522 70.0260621 231.571157 70.0260621 233.102492 70.2418666 239.938572 70.1331279 249.091628 70.459344 255.927708 70.0260621 259.804316 70.1331279 265.125705 69.9156505 268.799245 69.0474136 271.247717 68.937002 273.185189 67.7408761 275.428927 67.0901167 276.14466 66.2202069 277.164995 66.3289456 277.777529 65.5677746 279.511933 64.3716487 281.451069 63.3930002 282.879206 61.7619194 284.410541 61.544442 284.204143 59.5871451 285.530746 59.0451244 286.755814 56.87035 289.102751 54.913053 289.512217 52.196258 290.837155 49.8040062 291.449689 47.0855382 291.85749 44.3687431 292.36849 38.0635703 292.060558 30.8884878 290.427689 24.9078582L290.427689 24.9078582zM161.306179 43.4135153C160.587117 44.5343606 159.327095 45.5899626 158.449906 46.2842175 156.675555 47.6894563 154.654858 48.5392912 152.279624 48.7935725 150.045872 48.9391151 150.370449 49.1415364 148.131704 48.9742461 145.901281 49.2251816 148.021847 48.9775919 145.882971 48.7032357 143.654213 49.0578913 140.326888 48.4924499 138.094801 48.7433854 137.179329 48.6563945 137.057821 47.6141757 136.841436 46.8864627 137.270876 42.5904468 136.538498 35.992516 137.072801 31.8002201 137.121071 28.9763592 136.262192 26.4971164 137.126065 23.7619194L137.527208 23.5461149C141.893178 23.2550297 143.188154 23.3353291 147.564111 23.6715827 151.424074 23.5996478 152.497673 23.2751046 155.983125 24.8827647 158.416616 25.4783183 160.029512 27.6079243 161.176348 29.8412503 161.71398 30.8868149 162.17671 31.6346027 162.522925 32.840766 162.944042 34.3079023 163.093846 36.1664979 162.88412 38.0652432 162.662742 40.0693815 162.431377 41.7289016 161.306179 43.4135153L161.306179 43.4135153zM182.924636 11.1783403C180.179884 8.40466652 176.929126 7.32731675 173.778238 5.40849659 167.478125 2.84895444 161.522563 2.69504733 154.510047 2.4825886 145.365313 2.58965441 144.939203 2.69504733 135.794469 2.69504733 133.457519 2.80211314 131.222102 2.80211314 128.986686 2.69504733 126.549866 3.12163768 124.211251 2.69504733 121.671232 2.90917896 117.606536 2.58965441 114.355778 3.33576932 110.086349 2.80211314 109.578678 3.33576932 108.867939 2.90917896 108.360268 3.01457187 107.850932 3.01457187 107.647864 3.54822804 107.54633 3.9748184 107.241727 12.0800352 107.444796 21.0401057 107.343262 28.7187321 107.241727 40.6632622 107.54633 53.1414484 106.937125 65.3001101 107.54633 66.3674224 106.632522 68.0737838 107.647864 68.8198987 112.017163 69.4606207 116.58953 69.0340304 121.161896 69.1410962 123.194244 68.9269646 125.845784 68.6492626 127.675064 68.8633942 129.808946 68.4368039 131.904545 68.97046 134.036763 68.8633942 143.589298 68.8633942 145.235483 69.075853 154.683155 68.8633942 156.818701 69.1829188 159.190606 68.3933084 161.222954 68.60744 165.795321 68.5003742 169.979861 67.7208012 174.044557 66.4410302 174.85683 65.6932424 176.076905 65.5878494 176.889178 64.9471274 179.124594 63.9868809 180.750806 62.2821924 182.783154 60.8953555 185.01857 58.6553379 186.922752 56.4487783 188.445765 53.4626458 192.713529 46.7442659 192.818392 38.6373762 192.613659 30.2126348 191.90292 23.0659916 188.512344 15.8708343 182.924636 11.1783403L182.924636 11.1783403zM63.6702503 46.9450143C62.8263515 47.9186441 61.6778502 48.3452344 60.4644336 48.6045344 59.1311733 49.4276029 57.3484995 48.8086287 56.1550568 49.7387629 54.5205231 49.5631081 53.0457808 50.1670262 51.4195695 50.2138675 50.159547 50.0750165 48.8562477 50.0214836 47.5512839 49.9646049 43.921021 49.8040062 40.2907581 49.6049307 37.6292311 47.3816421 31.5521611 43.7614792 30.8713827 37.2672683 32.4842781 31.4154523 32.978633 30.1992516 34.0638835 28.2369359 35.1191731 27.2398855 37.3029902 25.1755228 40.8067514 24.3307066 44.0042457 24.1600704 44.9663236 24.5799692 46.0349292 23.9894343 46.9803622 23.8489104 49.0310196 24.3474356 51.5876835 23.6013207 53.6366764 24.0998459 56.0884771 24.3624917 59.0878965 24.5046885 61.0270328 25.7878054 63.9049441 26.8216597 65.5877482 29.3929122 66.8744026 31.5894343 67.838145 36.7034999 67.8331515 42.1471274 63.6702503 46.9450143L63.6702503 46.9450143zM86.8150488 9.16918336C84.1501928 7.2035219 81.4836723 5.12075721 78.3560868 4.07853841 75.5763807 2.69002862 72.4471307 1.64948272 69.4343954.839797491 67.4652982.724367158 65.496201-.0869909751 63.5271038.260972925 61.2084627.260972925 58.8914861-.202421308 56.9223889.145542593L47.7693327.260972925C46.6108444-.0869909751 45.4523561.724367158 44.4103824.145542593 40.8184029.49183359 36.7636939.49183359 33.288229.839797491 26.6835141 1.76491305 19.9639491 2.92256218 14.6342372 7.2035219 13.8236283 7.78067356 12.66514 8.01320713 12.3172606 9.05375303 6.63966926 14.2598283 2.4701101 20.6218798.963742417 27.9123927.38449827 31.9608188-.427775131 35.7783843.267983643 39.8284834-.0798957444 42.3729694 1.08025704 44.6882677 1.3116218 47.1156505 1.89086595 48.5041602 1.89086595 50.2406339 2.70147486 51.6291437 4.32269267 56.9506494 8.37906619 61.6933304 13.129534 65.2800352 14.6342372 66.668545 16.2571195 67.5953335 18.1097021 68.2879155 20.3118285 69.9072859 22.8601699 70.6015408 25.2936611 71.5266564 27.4957875 71.8746203 30.0441289 72.105481 32.3611055 72.5688752 34.3302027 72.6843055 36.4158145 72.6843055 38.1535469 72.9151662 40.0893542 72.8867268 43.2285912 73.0272507 45.1993529 73.038961 47.0685804 73.2614572 47.4064728 73.8218798 47.8392415 74.5194805 48.2337267 75.1535109 48.7114367 75.7423729 49.1874821 76.3529826 50.5307293 77.9639886 51.8872925 79.6937706 53.5001878 81.2863746 55.028194 82.9509135 56.7958873 84.4799472 58.5585872 86.0357473 59.4707302 86.7835351 60.4261502 87.494519 61.3682542 88.2188862 62.2937132 88.9583095 63.773449 89.7228263 64.7771393 90.3702399 66.737914 91.7219459 67.9097182 91.8741801 69.9686982 92.9732776 71.0123363 93.5002421 72.0975868 93.9452344 73.141225 94.4136474 73.6655408 94.6411622 74.1865277 94.8670042 74.7041855 95.0911732 75.2384883 95.2802113 75.7694621 95.4675765 76.2954424 95.6532688 77.3457386 96.0095972 78.3810542 96.3609069 79.393067 96.7038521 80.1104642 96.8845256 80.8644803 96.964825 81.5569101 97.138807 81.9280924 97.2107418 83.0899097 97.1823024 83.9471244 95.7285494L84.0386716 95.5963901C84.2700364 95.216641 84.4930787 94.8335461 84.7294369 94.45547 87.2544754 89.6324895 89.3484097 85.8283073 91.7719139 80.6958398L92.2046825 79.6519481C92.2046825 79.6519481 93.1567735 78.0861105 91.425699 77.2162007 90.5884582 76.8983491 89.5281751 76.6607968 88.6559799 76.1706361 88.1133546 75.9063174 87.3210551 75.6670922 86.751798 75.3877174 86.2091727 75.0564825 85.1305801 74.494387 84.857603 74.2902928 84.3166423 73.8787585 83.1265286 73.5625798 82.5955548 73.125952 81.8049198 72.4250055 81.0176138 72.2978648 80.2586042 71.5601145L78.9602984 70.5162228C78.9602984 70.5162228 77.8783768 69.6028175 78.6573604 68.9503852L79.7392819 68.6024213C80.9144151 68.1407 82.7486883 67.6087167 83.8938606 67.0365838 86.4538534 65.7568127 88.8157714 64.4686771 90.8680933 62.4695576 91.2892104 61.9543033 91.6753732 61.4658155 92.2596108 60.9990755 93.6494639 58.6854501 96.3143199 56.6026855 96.7770494 53.7102355 98.2834171 51.1657495 98.9791758 48.2732996 99.4419054 45.3808497 100.02115 38.6708343 99.6732701 31.0357033 97.8206875 24.6719789 95.3871963 19.0025094 91.7968813 13.3330398 86.8150488 9.16918336L86.8150488 9.16918336zM352.025643 49.6969403C351.04692 51.4886199 349.076159 51.2493947 347.456605 51.5053489 342.286685 52.1694915 343.801375 51.2510676 338.421728 51.5889941 336.585791 51.1841514 334.099036 51.8867709 332.159899 51.485274 331.139564 51.2861985 329.528333 51.9837993 329.095565 50.775963 328.639493 48.3535989 329.185447 45.3825226 329.030649 42.8413823 331.041359 41.8025094 334.368684 42.5201849 336.597442 42.2525204 340.157796 42.3963901 337.204983 42.570372 340.860213 42.3813339 342.691157 42.4532688 344.527095 42.5804094 346.456244 42.7042043 349.212647 42.8798591 350.27293 43.107374 351.632823 45.2319613 352.673132 46.8563504 352.311936 48.8069558 352.025643 49.6969403L352.025643 49.6969403zM329.866226 19.8891481C333.321717 19.9577372 336.15968 19.8724191 339.387135 19.666652 343.090636 20.2438037 343.63659 19.9493727 347.809478 20.4596082 349.437354 20.6637024 350.99865 22.6209993 351.013631 24.8175215 351.130145 26.0537971 351.041927 27.1779881 350.341175 27.9742901 346.917309 30.4903368 342.323304 28.8609289 338.469999 29.4715386 333.890974 29.0800792 334.455237 29.3996038 329.781336 29.3460709 329.363548 28.4527405 329.348568 27.3285494 329.132184 26.2077042 329.213744 24.5197447 328.662796 21.1404799 329.866226 19.8891481L329.866226 19.8891481zM377.600604 40.4993176C376.561959 39.4554259 373.484309 37.4362316 369.965567 36.8456967 369.745854 36.8088928 369.574411 36.6282192 369.564424 36.4040502 369.554437 36.1581334 369.562759 36.0861985 369.522811 35.7934405 369.502837 35.6445521 369.576075 35.4973366 369.712564 35.4354391 377.961799 31.7182479 381.160958 24.6853621 379.651261 17.2877834 378.797376 14.1410522 377.197796 10.7366938 374.824227 8.23235747 374.394787 7.77900066 373.903761 7.37917676 373.394426 7.01950253 370.308453 4.84472815 367.407239 3.50640546 363.732034 3.34747964 359.973605 3.45454545 360.193319 2.70843055 356.534759 3.13502091 352.165461 3.0279551 347.964276 2.89077702 343.594978 2.89077702 336.708963 2.79876733 331.330981 2.65991635 325.746601 2.65155184 321.818394 2.64653313 317.86189 2.96438477 313.627416 2.99951574 309.845684 3.03297381 304.803929 2.7837112 300.398012 2.7837112 299.788807 3.21030156 299.281136 3.63689192 299.281136 4.38300682 298.976534 13.555536 300.015178 22.3014748 299.708911 31.7935285 300.116712 32.8608409 299.708911 33.8194145 299.607377 34.8867268 299.607377 44.6983051 300.366387 54.4044904 300.061784 64.5355932 300.264852 65.8153643 299.554113 67.5217257 300.469585 68.6961039 303.517275 69.1226943 306.009024 69.0156284 309.056713 69.1226943 319.523056 69.0156284 326.750292 69.2280872 337.419703 69.2280872 339.248982 69.4422188 338.819543 68.9771517 340.445754 69.2983491 343.901245 69.5108078 345.424257 69.1226943 348.77655 69.4422188 351.115165 68.9085626 353.856587 69.335153 356.195202 69.1226943 356.195202 69.1226943 359.344426 69.1226943 360.361433 68.8014968 365.702796 68.7964781 370.519844 68.2711864 374.697725 65.6832049 376.120868 64.6175655 377.966793 63.0082324 378.882265 61.7284614 379.895942 60.1291657 380.784782 58.4094211 381.495522 56.5959938 382.535831 52.766718 382.334427 48.8922738 380.889645 45.4594761 380.080701 43.5322914 379.078675 41.8593881 377.600604 40.4993176L377.600604 40.4993176z"/>
      <polyline fill="#000000" points="128.096 98.079 128.096 85.434 127.054 87.839 122.157 98.079 118.865 98.079 114.023 87.811 112.981 85.405 112.981 98.079 107.971 98.079 107.971 79.239 115.429 79.239 120.075 89.395 120.834 91.177 121.595 89.395 126.21 79.239 133.529 79.239 133.529 98.079 128.096 98.079"/>
      <polyline fill="#000000" points="149.044 98.079 149.044 79.239 166.015 79.239 166.015 83.312 154.503 83.312 154.503 86.849 162.721 86.849 162.721 90.017 154.503 90.017 154.503 93.78 166.015 93.78 166.015 98.079 149.044 98.079"/>
      <polyline fill="#000000" points="193.912 88.545 201.257 98.079 195.037 98.079 190.45 91.856 185.778 98.079 179.924 98.079 187.297 88.716 179.98 79.239 186.2 79.239 190.759 85.405 195.375 79.239 201.231 79.239 193.912 88.545"/>
      <polygon fill="#000000" points="216.977 98.079 222.438 98.079 222.438 79.239 216.977 79.239"/>
      <path fill="#000000" d="M254.927346 85.4619414C253.745555 84.0198987 251.80309 82.803698 249.241433 82.803698 245.80758 82.803698 243.78189 84.9249395 243.78189 87.668501L243.78189 89.7345366C243.78189 92.4496588 245.80758 94.5424609 249.326322 94.5424609 251.80309 94.5424609 253.857076 93.2978208 254.983939 91.8557781L258.023307 94.4303764C256.475326 96.7490205 253.182956 98.7012987 248.90354 98.7012987 242.345431 98.7012987 238.209162 94.6562184 238.209162 89.7060973L238.209162 87.6969403C238.209162 82.7183799 242.486913 78.6164209 248.960133 78.6164209 253.15466 78.6164209 256.64344 80.5686991 258.164789 82.9174554L254.927346 85.4619414M280.883476 84.2741801L278.153705 90.83698 283.530023 90.83698 280.883476 84.2741801 280.883476 84.2741801zM286.401276 98.0789786L284.796703 94.1744222 276.802135 94.1744222 275.170931 98.0789786 270.104209 98.0789786 278.323484 79.2387409 283.896212 79.2387409 292.227008 98.0789786 286.401276 98.0789786 286.401276 98.0789786z"/>
      <polyline fill="#000000" points="320.512 98.079 312.011 88.348 310.69 86.735 310.69 98.079 305.538 98.079 305.538 79.239 310.295 79.239 318.654 88.998 319.949 90.611 319.949 79.239 325.099 79.239 325.099 98.079 320.512 98.079"/>
      <polyline fill="#000000" points="354.915 98.079 354.915 79.239 371.888 79.239 371.888 83.312 360.376 83.312 360.376 86.849 368.594 86.849 368.594 90.017 360.376 90.017 360.376 93.78 371.888 93.78 371.888 98.079 354.915 98.079"/>
      <path fill="#000000" d="M396.645752,84.2741801 L393.915981,90.83698 L399.292299,90.83698 L396.645752,84.2741801 L396.645752,84.2741801 Z M402.163552,98.0789786 L400.558979,94.1744222 L392.564411,94.1744222 L390.933206,98.0789786 L385.866485,98.0789786 L394.085759,79.2387409 L399.658487,79.2387409 L407.989283,98.0789786 L402.163552,98.0789786 L402.163552,98.0789786 Z"/>
      <polyline fill="#000000" points="430.535 83.454 430.535 98.079 425.047 98.079 425.047 83.454 418.123 83.454 418.123 79.239 437.431 79.239 437.431 83.454 430.535 83.454"/>
      <path fill="#000000" d="M458.972755 98.7012987C454.919711 98.7012987 451.485858 97.485098 448.72779 95.7318952L450.923259 92.4212195C453.541509 94.0054589 456.467691 94.9673784 459.085941 94.9673784 461.900601 94.9673784 463.0258 94.0054589 463.0258 92.9013427 463.0258 89.762976 449.656578 91.6299362 449.656578 84.7543033 449.656578 81.3616553 453.428323 78.6164209 459.001052 78.6164209 463.0258 78.6164209 465.980278 79.9179397 468.317228 81.6995818L465.812164 84.6422188C463.843067 83.2838213 461.253113 82.3503412 458.859569 82.3503412 456.354505 82.3503412 454.891414 83.1985032 454.891414 84.3310588 454.891414 87.3857803 468.373821 85.7731015 468.373821 92.4496588 468.373821 96.1267004 464.320777 98.7012987 458.972755 98.7012987M475.59107 82.3085186L475.950601 82.3085186C476.370053 82.3085186 476.70961 82.1679947 476.70961 81.8267224 476.70961 81.5255998 476.489897 81.3248514 476.010523 81.3248514 475.810783 81.3248514 475.670966 81.3449263 475.59107 81.3650011L475.59107 82.3085186 475.59107 82.3085186zM475.571096 84.1738059L474.812086 84.1738059 474.812086 80.8848778C475.111696 80.8229804 475.531148 80.7828307 476.070444 80.7828307 476.689636 80.7828307 476.969272 80.8848778 477.208959 81.0254017 477.388724 81.1642527 477.528542 81.4252256 477.528542 81.7464231 477.528542 82.1077702 477.248907 82.388818 476.849428 82.5075941L476.849428 82.5494167C477.167346 82.6698657 477.348776 82.9090909 477.446982 83.3507374 477.546851 83.8526084 477.608438 84.0533568 477.686669 84.1738059L476.869402 84.1738059C476.769532 84.0533568 476.70961 83.7522342 476.609741 83.3708122 476.549819 83.0094651 476.35008 82.8488664 475.930627 82.8488664L475.571096 82.8488664 475.571096 84.1738059 475.571096 84.1738059zM473.555393 82.4473696C473.555393 83.9128329 474.632321 85.0755008 476.110392 85.0755008 477.546851 85.0755008 478.60547 83.9128329 478.60547 82.4691173 478.60547 81.003654 477.546851 79.8209113 476.090418 79.8209113 474.632321 79.8209113 473.555393 81.003654 473.555393 82.4473696L473.555393 82.4473696zM479.444375 82.4473696C479.444375 84.3143297 477.987942 85.7781202 476.090418 85.7781202 474.212868 85.7781202 472.716488 84.3143297 472.716488 82.4473696 472.716488 80.622232 474.212868 79.1567687 476.090418 79.1567687 477.987942 79.1567687 479.444375 80.622232 479.444375 82.4473696L479.444375 82.4473696z"/>
    </g>
  </g>
</svg>
