<svg xmlns="http://www.w3.org/2000/svg" width="512" height="512" viewBox="0 0 512 512">
  <g fill="none" fill-rule="evenodd" transform="translate(16 207)">
    <path fill="#ED952D" d="M425.804844 46.5799308C425.37301 46.5799308 423.761938 46.6729412 423.185606 46.7460208 423.110865 46.7559862 422.931488 46.7659516 422.870035 46.7327336 422.758754 46.6746021 422.622561 46.5649827 422.527889 46.4553633 422.466436 46.3839446 422.439862 46.1713495 422.469758 46.0982699 422.526228 45.9554325 422.612595 45.76609 422.630865 45.7378547 423.085952 44.970519 423.537716 44.1882353 423.883183 43.3179239L424.494394 42.0024913 424.494394 42.0008304C424.627266 41.7234602 425.218547 40.5492042 425.301592 40.2519031 425.314879 40.2020761 425.5391 39.5609689 425.5391 39.5609689 425.607197 39.4364014 426.542284 35.9767474 426.542284 35.9767474 426.696747 35.7309343 426.844567 35.4801384 426.939239 35.20609 426.964152 35.1296886 427.871003 32.6532872 427.871003 32.6532872L427.871003 32.6516263 427.872664 32.6499654 427.871003 32.6516263C427.935779 32.5337024 428.372595 31.5720415 428.404152 31.4408304 428.709758 30.5987543 428.940623 29.4012457 429.04692 29.1255363 429.151557 28.849827 429.216332 28.7634602 429.540208 28.7518339L431.226021 28.7850519C431.226021 28.7850519 431.646228 28.7850519 431.744221 29.3680277 431.745882 29.3779931 432.141176 30.6817993 432.478339 31.5703806L433.27391 34.1929412 433.459931 34.6480277 434.413287 36.7540484C434.47474 37.0131488 435.001246 38.8716955 435.137439 39.1158478L436.097439 41.2451211 437.160415 43.663391C437.441107 44.3709343 438.33301 45.633218 438.660208 46.1098962 438.736609 46.2211765 438.736609 46.4138408 438.671834 46.493564 438.575502 46.609827 438.437647 46.7443599 438.326367 46.8357093 438.253287 46.8971626 437.859654 46.9104498 437.859654 46.9104498L435.825052 46.6662976C435.825052 46.6662976 426.734948 46.5799308 425.804844 46.5799308L425.804844 46.5799308zM478.20955 66.5339792C476.440692 62.4049827 473.424498 57.6597924 471.653979 53.4244983 463.359446 36.4949481 456.875294 21.1415917 448.760138 4.83487889 448.240277 4.20041522 448.034325 3.03612457 446.992941 2.71889273 444.484983 2.60927336 441.609965 2.64415225 438.573841 2.76041522 434.554464 2.91487889 430.249412 2.51958478 426.12872 2.80525952 421.768858 3.10920415 417.709619 3.20553633 414.142007 3.24539792L413.517509 3.66892734C406.443737 17.4344637 402.201799 28.4611765 395.72263 42.4542561 391.769689 48.9134948 388.846505 57.2495502 385.102837 63.8150865 384.581315 65.5092042 382.189619 66.88609 383.229343 68.7911419 386.350173 69.003737 389.368028 69.1083737 392.176609 68.7911419 398.003045 69.1083737 403.515571 68.7911419 409.029758 68.7911419 411.213841 68.2629758 414.022422 69.6382007 415.374394 67.3096194 416.208166 65.5092042 416.728028 63.6041522 417.663114 61.803737 418.08 60.1096194 420.056471 60.4268512 421.408443 60.3205536 424.218685 60.6394464 426.817993 59.6844291 429.835848 60.2142561L430.252734 60.2142561C434.205675 59.8970242 438.220069 60.2873356 441.963737 60.0764014 443.470173 60.2491349 443.199446 62.6773702 443.92692 63.6307266 444.343806 65.3265052 445.212457 67.1451903 446.044567 68.5220761 447.918062 69.2628374 450.102145 68.5220761 451.973979 68.9456055 459.879862 68.5220761 465.311003 69.0751557 473.11391 68.8625606 474.464221 68.6516263 476.316125 68.887474 477.482076 68.7579239 478.367336 68.6582699 478.418824 67.3810381 478.20955 66.5339792L478.20955 66.5339792zM260.718062 43.6949481C260.038754 44.6499654 257.007612 46.6845675 255.98782 46.8955017 254.856747 47.6395848 253.572872 47.7658131 252.456747 48.2009689 251.098131 47.9883737 248.209827 48.5182007 246.851211 48.5182007 242.889965 47.8820761 236.535363 48.4119031 233.592249 45.4422145 228.614533 41.8364014 227.433633 35.3605536 230.207336 29.8048443 231.564291 26.3036678 235.497301 23.9717647 239.456886 23.8654671 240.247474 24.2889965 241.154325 23.7591696 241.944913 23.652872 243.642353 24.182699 249.287751 23.2708651 250.986851 23.800692 253.023114 24.1195848 255.856609 24.4899654 257.439446 25.7638754 259.816194 26.8218685 261.214671 28.9461592 262.231142 31.067128 263.491765 34.6031834 263.435294 39.6656055 260.718062 43.6949481L260.718062 43.6949481zM289.800415 24.7291349C287.664498 19.4408304 284.983806 13.9316263 280.607336 10.0451211 278.265467 8.21148789 275.754187 6.18020761 273.005398 5.20858131 270.562215 3.91474048 267.50782 3.25038062 264.858685 2.49467128 263.126367 2.3883737 261.399031 1.63100346 259.668374 1.95487889 257.63045 1.95487889 255.594187 1.52304498 253.863529 1.84858131L241.049689 1.95487889C240.031557 1.63100346 239.011765 2.3883737 238.096609 1.84858131 234.9409 2.17079585 231.37827 2.17079585 228.322215 2.49467128 222.520692 3.36 216.614533 4.43792388 211.932457 8.43238754 211.219931 8.97051903 210.201799 9.18643599 209.896194 10.1580623 204.906851 15.0145329 201.241246 20.9522491 199.91917 27.7519723 199.409273 31.5288581 198.696747 35.0914879 199.309619 38.8683737 199.002353 41.2434602 200.020484 43.4026298 200.224775 45.6697578 200.73301 46.9652595 200.73301 48.5829758 201.445536 49.8784775 202.870588 54.8429066 206.433218 59.2692042 210.60872 62.6142561 211.932457 63.9097578 213.357509 64.7734256 214.986851 65.4211765 216.921799 66.9325952 219.160692 67.580346 221.29827 68.4423529 223.231557 68.7678893 225.472111 68.9821453 227.510035 69.4139792 229.239031 69.5235986 231.071003 69.5235986 232.599031 69.7378547 239.420346 69.6298962 248.553633 69.9537716 255.374948 69.5235986 259.243183 69.6298962 264.55308 69.4139792 268.218685 68.5519723 270.661869 68.4423529 272.595156 67.2548097 274.834048 66.6087197 275.548235 65.7450519 276.566367 65.8530104 277.177578 65.097301 278.908235 63.9097578 280.843183 62.9381315 282.268235 61.3187543 283.796263 61.1028374 283.590311 59.1595848 284.914048 58.6214533 286.136471 56.4622837 288.478339 54.5190311 288.88692 51.8217301 290.208997 49.4466436 290.820208 46.7476817 291.227128 44.0503806 291.737024 37.7904498 291.429758 30.6668512 289.800415 24.7291349L289.800415 24.7291349zM160.957785 43.1020069C160.240277 44.2148097 158.982976 45.2628374 158.107682 45.9521107 156.337163 47.3472664 154.32083 48.1910035 151.950727 48.4434602 149.721799 48.5879585 150.045675 48.7889273 147.811765 48.6228374 145.586159 48.8719723 147.702145 48.6261592 145.567889 48.3537716 143.343945 48.7058824 140.023806 48.1444983 137.79654 48.3936332 136.883045 48.3072664 136.761799 47.272526 136.545882 46.5500346 136.974394 42.2848443 136.243599 35.7342561 136.776747 31.5720415 136.824913 28.7684429 135.967889 26.3069896 136.829896 23.5914187L137.230173 23.3771626C141.586713 23.0881661 142.878893 23.1678893 147.245398 23.5017301 151.097024 23.4303114 152.168304 23.1080969 155.646228 24.7042215 158.074464 25.2955017 159.683875 27.409827 160.828235 29.627128 161.364706 30.6651903 161.826436 31.4076125 162.171903 32.6051211 162.592111 34.0617301 162.741592 35.9069896 162.532318 37.7921107 162.311419 39.7818685 162.080554 41.429481 160.957785 43.1020069L160.957785 43.1020069zM182.52955 11.0981315C179.790727 8.34435986 176.54699 7.27474048 173.402907 5.36968858 167.116401 2.82851211 161.173702 2.67570934 154.176332 2.46477509 145.051349 2.57107266 144.626159 2.67570934 135.501176 2.67570934 133.169273 2.78200692 130.938685 2.78200692 128.708097 2.67570934 126.27654 3.09923875 123.942976 2.67570934 121.408443 2.8883045 117.352526 2.57107266 114.108789 3.31183391 109.848581 2.78200692 109.342007 3.31183391 108.632803 2.8883045 108.126228 2.99294118 107.617993 2.99294118 107.415363 3.52276817 107.314048 3.94629758 107.010104 11.9933564 107.212734 20.8891349 107.111419 28.5126644 107.010104 40.3714879 107.314048 52.7601384 106.706159 64.8315571 107.314048 65.8912111 106.402215 67.5853287 107.415363 68.32609 111.775225 68.9622145 116.337716 68.5386851 120.900208 68.6449827 122.928166 68.4323875 125.573979 68.1566782 127.399308 68.3692734 129.528581 67.9457439 131.619654 68.4755709 133.747266 68.3692734 143.27917 68.3692734 144.921799 68.5802076 154.349066 68.3692734 156.48 68.6865052 158.846782 67.9025606 160.87474 68.1151557 165.437232 68.0088581 169.612734 67.2348789 173.668651 65.9642907 174.47917 65.2218685 175.696609 65.1172318 176.507128 64.4811073 178.737716 63.5277509 180.360415 61.8352941 182.388374 60.4584083 184.618962 58.2344637 186.519031 56.043737 188.038754 53.0790311 192.297301 46.4088581 192.401938 38.3601384 192.197647 29.9958478 191.488443 22.9004844 188.10519 15.756955 182.52955 11.0981315L182.52955 11.0981315zM63.5327336 46.6081661C62.6906574 47.5748097 61.5446367 47.9983391 60.3338408 48.2557785 59.0034602 49.0729412 57.2246367 48.4584083 56.0337716 49.3818685 54.4027682 49.207474 52.9312111 49.8070588 51.3085121 49.853564 50.0512111 49.7157093 48.7507266 49.6625606 47.4485813 49.60609 43.8261592 49.4466436 40.203737 49.2489965 37.5479585 47.0416609 31.4840138 43.447474 30.8047059 36.9998616 32.4141176 31.1900346 32.9074048 29.9825606 33.9903114 28.0343253 35.0433218 27.0444291 37.2224221 24.9948789 40.7186159 24.1561246 43.9092042 23.9867128 44.8692042 24.4035986 45.9355017 23.817301 46.8788927 23.6777855 48.9251211 24.1727336 51.476263 23.4319723 53.5208304 23.9269204 55.9673356 24.1876817 58.9602768 24.3288581 60.8952249 25.6027682 63.7669204 26.6292042 65.44609 29.1820069 66.7299654 31.3627682 67.6916263 36.4401384 67.6866436 41.8447059 63.5327336 46.6081661L63.5327336 46.6081661zM86.6275433 9.103391C83.9684429 7.15183391 81.3076817 5.08401384 78.1868512 4.04927336 75.4131488 2.67072664 72.2906574 1.63764706 69.2844291.833771626 67.3195848.71916955 65.3547405-.086366782 63.3898962.259100346 61.076263.259100346 58.7642907-.200968858 56.7994464.14449827L47.6661592.259100346C46.510173-.086366782 45.3541869.71916955 44.3144637.14449827 40.7302422.488304498 36.6842907.488304498 33.2163322.833771626 26.6258824 1.75224913 19.9208304 2.9015917 14.6026298 7.15183391 13.7937716 7.72484429 12.6377855 7.95570934 12.2906574 8.98878893 6.62532872 14.1575087 2.46477509 20.47391.9616609 27.7121107.38366782 31.7314879-.426851211 35.5216609.267404844 39.542699-.0797231834 42.0689273 1.07792388 44.3676125 1.30878893 46.7775779 1.88678201 48.1561246 1.88678201 49.8801384 2.69564014 51.2586851 4.3133564 56.5420069 8.36096886 61.2506574 13.1011765 64.8116263 14.6026298 66.190173 16.2220069 67.1103114 18.0705882 67.7979239 20.2679585 69.4056747 22.8107958 70.0949481 25.2390311 71.0134256 27.4364014 71.3588927 29.9792388 71.5880969 32.2912111 72.0481661 34.2560554 72.1627682 36.3371626 72.1627682 38.0711419 72.3919723 40.0027682 72.363737 43.1352249 72.5032526 45.1017301 72.5148789 46.9669204 72.7357785 47.304083 73.2921799 47.735917 73.9847751 48.1295502 74.6142561 48.6062284 75.1988927 49.0812457 75.8051211 50.4215917 77.4045675 51.7752249 79.1219377 53.3846367 80.7031142 54.9093426 82.3557093 56.673218 83.8737716 58.4321107 85.4184083 59.3422837 86.1608304 60.2956401 86.8667128 61.2357093 87.5858824 62.1591696 88.32 63.6357093 89.0790311 64.6372318 89.7217993 66.5937716 91.0638062 67.763045 91.2149481 69.8175779 92.3061592 70.8589619 92.8293426 71.9418685 93.2711419 72.9832526 93.7361938 73.506436 93.9620761 74.0262976 94.1862976 74.5428374 94.4088581 75.0759862 94.5965398 75.6058131 94.7825606 76.1306574 94.9669204 77.1786851 95.320692 78.2117647 95.669481 79.2215917 96.0099654 79.9374394 96.1893426 80.689827 96.2690657 81.3807612 96.4417993 81.7511419 96.513218 82.9104498 96.4849827 83.7658131 95.0416609L83.8571626 94.9104498C84.0880277 94.5334256 84.3105882 94.1530796 84.546436 93.7777163 87.0660208 88.9893426 89.1554325 85.2124567 91.5737024 80.1168166L92.0055363 79.0804152C92.0055363 79.0804152 92.9555709 77.5258131 91.2282353 76.6621453 90.3928028 76.3465744 89.3348097 76.1107266 88.4644983 75.624083 87.923045 75.3616609 87.1324567 75.1241522 86.5644291 74.846782 86.0229758 74.5179239 84.9467128 73.9598616 84.6743253 73.7572318 84.1345329 73.3486505 82.9469896 73.0347405 82.4171626 72.6012457 81.6282353 71.9053287 80.8426298 71.7791003 80.0852595 71.0466436L78.7897578 70.0102422C78.7897578 70.0102422 77.710173 69.103391 78.487474 68.4556401L79.5670588 68.110173C80.739654 67.6517647 82.5699654 67.1235986 83.7126644 66.5555709 86.267128 65.2849827 88.6239446 64.00609 90.6718339 62.0213149 91.0920415 61.5097578 91.4773702 61.0247751 92.060346 60.5613841 93.4471972 58.2643599 96.1062976 56.1965398 96.5680277 53.3248443 98.0711419 50.7986159 98.7653979 47.9269204 99.227128 45.0552249 99.8051211 38.3933564 99.4579931 30.8130104 97.6094118 24.4949481 95.1811765 18.8661592 91.5986159 13.2373702 86.6275433 9.103391L86.6275433 9.103391zM351.265329 49.340346C350.28872 51.1191696 348.322215 50.8816609 346.706159 51.1357785 341.547405 51.7951557 343.058824 50.8833218 337.690796 51.2188235 335.858824 50.8168858 333.377439 51.5144637 331.442491 51.1158478 330.42436 50.9182007 328.816609 51.6107958 328.384775 50.4116263 327.929689 48.0066436 328.474464 45.0568858 328.32 42.5339792 330.326367 41.5025606 333.646505 42.2150865 335.87045 41.9493426 339.423114 42.0921799 336.476678 42.2649135 340.124014 42.0772318 341.951003 42.1486505 343.782976 42.2748789 345.707958 42.3977855 348.458408 42.5721799 349.516401 42.7980623 350.873356 44.9074048 351.911419 46.5201384 351.551003 48.4567474 351.265329 49.340346L351.265329 49.340346zM329.153772 19.746436C332.601799 19.8145329 335.433633 19.729827 338.654118 19.5255363 342.349619 20.0985467 342.894394 19.8062284 347.05827 20.3128028 348.68263 20.5154325 350.240554 22.4586851 350.255502 24.6394464 350.371765 25.8668512 350.283737 26.9829758 349.584498 27.773564 346.168028 30.2715571 341.583945 28.6538408 337.738962 29.2600692 333.169827 28.8714187 333.732872 29.1886505 329.069066 29.1355017 328.65218 28.2485813 328.637232 27.1324567 328.421315 26.019654 328.502699 24.3438062 327.952941 20.9887889 329.153772 19.746436L329.153772 19.746436zM376.785052 40.2087197C375.748651 39.1723183 372.677647 37.1676125 369.166505 36.5813149 368.947266 36.5447751 368.776194 36.3653979 368.766228 36.1428374 368.756263 35.8986851 368.764567 35.8272664 368.724706 35.536609 368.704775 35.3887889 368.777855 35.2426298 368.914048 35.1811765 377.145467 31.4906574 380.337716 24.5082353 378.83128 17.163737 377.979239 14.0395848 376.383114 10.659654 374.014671 8.1732872 373.586159 7.72318339 373.096194 7.32622837 372.587958 6.96913495 369.508651 4.8099654 366.613702 3.48124567 362.946436 3.32346021 359.196125 3.42975779 359.415363 2.68899654 355.764706 3.11252595 351.404844 3.00622837 347.212734 2.8700346 342.852872 2.8700346 335.98173 2.77868512 330.615363 2.64083045 325.043045 2.63252595 321.123322 2.62754325 317.175363 2.94311419 312.950035 2.97799308 309.176471 3.01121107 304.145606 2.76373702 299.749204 2.76373702 299.141315 3.18726644 298.63474 3.61079585 298.63474 4.35155709 298.330796 13.4582699 299.367197 22.1414533 299.061592 31.5653979 299.468512 32.6250519 299.061592 33.5767474 298.960277 34.6364014 298.960277 44.3775779 299.717647 54.0141176 299.413702 64.072526 299.616332 65.3431142 298.907128 67.0372318 299.820623 68.2031834 302.86173 68.6267128 305.348097 68.5204152 308.389204 68.6267128 318.832941 68.5204152 326.044567 68.7313495 336.690934 68.7313495 338.516263 68.9439446 338.087751 68.4822145 339.71045 68.8011073 343.158478 69.0120415 344.678201 68.6267128 348.023253 68.9439446 350.356817 68.4141176 353.092318 68.8376471 355.425882 68.6267128 355.425882 68.6267128 358.568304 68.6267128 359.583114 68.3078201 364.912941 68.3028374 369.719585 67.7813149 373.888443 65.2119031 375.308512 64.15391 377.15045 62.5561246 378.063945 61.2855363 379.075433 59.6977163 379.962353 57.9903114 380.671557 56.1898962 381.709619 52.3880969 381.508651 48.5414533 380.06699 45.1332872 379.259792 43.2199308 378.259931 41.5590311 376.785052 40.2087197L376.785052 40.2087197z"/>
    <polyline fill="#000000" points="127.82 97.375 127.82 84.82 126.78 87.209 121.893 97.375 118.608 97.375 113.777 87.181 112.737 84.792 112.737 97.375 107.738 97.375 107.738 78.67 115.18 78.67 119.816 88.753 120.573 90.522 121.332 88.753 125.938 78.67 133.241 78.67 133.241 97.375 127.82 97.375"/>
    <polyline fill="#000000" points="148.722 97.375 148.722 78.67 165.656 78.67 165.656 82.714 154.17 82.714 154.17 86.226 162.37 86.226 162.37 89.371 154.17 89.371 154.17 93.107 165.656 93.107 165.656 97.375 148.722 97.375"/>
    <polyline fill="#000000" points="193.493 87.91 200.823 97.375 194.616 97.375 190.038 91.197 185.376 97.375 179.535 97.375 186.893 88.079 179.591 78.67 185.798 78.67 190.347 84.792 194.953 78.67 200.796 78.67 193.493 87.91"/>
    <polygon fill="#000000" points="216.508 97.375 221.958 97.375 221.958 78.67 216.508 78.67"/>
    <path fill="#000000" d="M254.376747 84.8487197C253.197509 83.4170242 251.259239 82.2095502 248.703114 82.2095502 245.276678 82.2095502 243.255363 84.3155709 243.255363 87.0394464L243.255363 89.0906574C243.255363 91.7862976 245.276678 93.864083 248.78782 93.864083 251.259239 93.864083 253.308789 92.6283737 254.433218 91.1966782L257.466021 93.7528028C255.921384 96.0548097 252.636125 97.9930796 248.365952 97.9930796 241.822007 97.9930796 237.694671 93.9770242 237.694671 89.0624221L237.694671 87.0676817C237.694671 82.1248443 241.963183 78.0523183 248.422422 78.0523183 252.607889 78.0523183 256.089135 79.9905882 257.607197 82.3224913L254.376747 84.8487197M280.276817 83.669481L277.552941 90.1851903 282.917647 90.1851903 280.276817 83.669481 280.276817 83.669481zM285.782699 97.3752249L284.181592 93.4986851 276.204291 93.4986851 274.576609 97.3752249 269.52083 97.3752249 277.722353 78.670173 283.283045 78.670173 291.595848 97.3752249 285.782699 97.3752249 285.782699 97.3752249z"/>
    <polyline fill="#000000" points="319.82 97.375 311.337 87.714 310.019 86.113 310.019 97.375 304.878 97.375 304.878 78.67 309.625 78.67 317.966 88.36 319.258 89.961 319.258 78.67 324.397 78.67 324.397 97.375 319.82 97.375"/>
    <polyline fill="#000000" points="354.149 97.375 354.149 78.67 371.085 78.67 371.085 82.714 359.598 82.714 359.598 86.226 367.798 86.226 367.798 89.371 359.598 89.371 359.598 93.107 371.085 93.107 371.085 97.375 354.149 97.375"/>
    <path fill="#000000" d="M395.789066,83.669481 L393.06519,90.1851903 L398.429896,90.1851903 L395.789066,83.669481 L395.789066,83.669481 Z M401.294948,97.3752249 L399.693841,93.4986851 L391.71654,93.4986851 L390.088858,97.3752249 L385.03308,97.3752249 L393.234602,78.670173 L398.795294,78.670173 L407.108097,97.3752249 L401.294948,97.3752249 L401.294948,97.3752249 Z"/>
    <polyline fill="#000000" points="429.605 82.856 429.605 97.375 424.129 97.375 424.129 82.856 417.22 82.856 417.22 78.67 436.486 78.67 436.486 82.856 429.605 82.856"/>
    <path fill="#000000" d="M457.981453 97.9930796C453.937163 97.9930796 450.510727 96.7856055 447.758616 95.0449827L449.949343 91.7580623C452.561938 93.3309343 455.481799 94.2859516 458.094394 94.2859516 460.902976 94.2859516 462.025744 93.3309343 462.025744 92.2347405 462.025744 89.1188927 448.685398 90.9724567 448.685398 84.1461592 448.685398 80.7778547 452.448997 78.0523183 458.009689 78.0523183 462.025744 78.0523183 464.973841 79.3444983 467.305744 81.1133564L464.80609 84.0348789C462.841246 82.6862284 460.256886 81.7594464 457.868512 81.7594464 455.368858 81.7594464 453.908927 82.6015225 453.908927 83.7259516 453.908927 86.7587543 467.362215 85.1576471 467.362215 91.7862976 467.362215 95.436955 463.317924 97.9930796 457.981453 97.9930796M474.563875 81.7179239L474.92263 81.7179239C475.341176 81.7179239 475.68 81.5784083 475.68 81.2395848 475.68 80.9406228 475.460761 80.7413149 474.982422 80.7413149 474.783114 80.7413149 474.643599 80.7612457 474.563875 80.7811765L474.563875 81.7179239 474.563875 81.7179239zM474.543945 83.569827L473.786574 83.569827 473.786574 80.3044983C474.085536 80.243045 474.504083 80.2031834 475.042215 80.2031834 475.660069 80.2031834 475.9391 80.3044983 476.17827 80.4440138 476.357647 80.5818685 476.497163 80.8409689 476.497163 81.1598616 476.497163 81.5186159 476.218131 81.7976471 475.819516 81.9155709L475.819516 81.9570934C476.136747 82.0766782 476.317785 82.3141869 476.415779 82.7526644 476.515433 83.2509343 476.576886 83.4502422 476.654948 83.569827L475.839446 83.569827C475.739792 83.4502422 475.68 83.1512803 475.580346 82.7725952 475.520554 82.4138408 475.321246 82.2543945 474.902699 82.2543945L474.543945 82.2543945 474.543945 83.569827 474.543945 83.569827zM472.532595 81.8557785C472.532595 83.3107266 473.607197 84.4650519 475.082076 84.4650519 476.515433 84.4650519 477.571765 83.3107266 477.571765 81.8773702 477.571765 80.4224221 476.515433 79.2481661 475.062145 79.2481661 473.607197 79.2481661 472.532595 80.4224221 472.532595 81.8557785L472.532595 81.8557785zM478.408858 81.8557785C478.408858 83.7093426 476.955571 85.1626298 475.062145 85.1626298 473.188651 85.1626298 471.695502 83.7093426 471.695502 81.8557785 471.695502 80.043737 473.188651 78.5887889 475.062145 78.5887889 476.955571 78.5887889 478.408858 80.043737 478.408858 81.8557785L478.408858 81.8557785z"/>
  </g>
</svg>
