<?xml version="1.0" encoding="utf-8"?>
<!-- Generator: Adobe Illustrator 16.0.0, SVG Export Plug-In . SVG Version: 6.00 Build 0)  -->
<!DOCTYPE svg PUBLIC "-//W3C//DTD SVG 1.1//EN" "http://www.w3.org/Graphics/SVG/1.1/DTD/svg11.dtd">
<svg version="1.1" id="Layer_1" xmlns="http://www.w3.org/2000/svg" xmlns:xlink="http://www.w3.org/1999/xlink" x="0px" y="0px"
	 width="512px" height="512px" viewBox="0 0 512 512" enable-background="new 0 0 512 512" xml:space="preserve">
<g>
	<path d="M69.114,267.459h-0.482c-0.702,0.027-1.507,0.041-2.412,0.041l-9.91-24.766c-0.146-0.294-0.395-0.44-0.746-0.44
		c-0.408,0-0.672,0.146-0.789,0.44L44.47,267.5h-0.263c-0.877,0-1.607-0.014-2.192-0.041H41.62c-0.438,0-0.658,0.24-0.658,0.721
		c0,0.455,0.22,0.682,0.658,0.682c0.059,0,0.176-0.014,0.351-0.039c0.322-0.055,0.709-0.094,1.162-0.121
		c0.453-0.025,1.19-0.039,2.214-0.039h0.22c1.023,0,1.754,0.014,2.193,0.039c0.438,0.027,0.817,0.066,1.14,0.121
		c0.175,0.025,0.291,0.039,0.351,0.039c0.438,0,0.657-0.227,0.657-0.682c0-0.48-0.219-0.721-0.657-0.721h-0.395
		c-0.614,0.027-1.389,0.041-2.324,0.041h-0.308l2.851-6.854h10.743l2.719,6.854c-0.877,0-1.681-0.014-2.412-0.041h-0.481
		c-0.438,0-0.658,0.24-0.658,0.721c0,0.455,0.22,0.682,0.658,0.682c0.087,0,0.22-0.014,0.395-0.039
		c0.379-0.027,0.861-0.061,1.446-0.1c0.585-0.041,1.462-0.061,2.631-0.061h0.526c1.169,0,2.047,0.02,2.632,0.061
		c0.584,0.039,1.065,0.072,1.446,0.1c0.176,0.025,0.307,0.039,0.396,0.039c0.438,0,0.657-0.227,0.657-0.682
		C69.771,267.699,69.553,267.459,69.114,267.459 M49.688,259.203l4.867-11.82l4.692,11.82H49.688z"/>
	<path d="M104.048,242.895c-0.094,0-0.234,0.013-0.421,0.04c-0.406,0.027-0.858,0.054-1.356,0.08
		c-0.5,0.027-1.263,0.055-2.293,0.081c-0.935,0-1.66-0.02-2.175-0.06s-0.99-0.074-1.426-0.101c-0.219-0.026-0.375-0.04-0.469-0.04
		c-0.156,0-0.312,0.066-0.468,0.2s-0.233,0.294-0.233,0.481c0,0.481,0.233,0.721,0.701,0.721h0.516
		c0.778-0.025,1.684-0.04,2.713-0.04v18.233l-13.145-17.993l-0.14-0.161c-0.406-0.561-0.702-0.922-0.89-1.082
		c-0.187-0.161-0.437-0.241-0.748-0.241c-0.125,0-0.374,0.014-0.748,0.041c-0.562,0.027-0.936,0.04-1.123,0.04
		c-0.967,0-1.715-0.02-2.245-0.06s-0.982-0.074-1.356-0.101c-0.187-0.026-0.327-0.04-0.421-0.04c-0.468,0-0.702,0.227-0.702,0.681
		c0,0.481,0.234,0.721,0.702,0.721h0.515c0.779-0.025,1.668-0.04,2.666-0.04V267.5c-0.998,0-1.887-0.014-2.666-0.041h-0.515
		c-0.468,0-0.702,0.24-0.702,0.723c0,0.453,0.234,0.68,0.702,0.68c0.094,0,0.234-0.014,0.421-0.039
		c0.374-0.027,0.812-0.061,1.31-0.1c0.498-0.041,1.263-0.061,2.292-0.061c0.966,0,1.723,0.02,2.269,0.061
		c0.546,0.039,1.006,0.072,1.38,0.1c0.188,0.025,0.327,0.039,0.421,0.039c0.468,0,0.702-0.227,0.702-0.68
		c0-0.482-0.234-0.723-0.702-0.723h-0.514c-0.78,0.027-1.669,0.041-2.667,0.041v-20.838l15.857,21.799l0.047,0.041
		c0.343,0.506,0.686,0.76,1.028,0.76c0.437,0,0.655-0.373,0.655-1.121v-23.884c1.029,0,1.948,0.014,2.76,0.04h0.468
		c0.468,0,0.701-0.24,0.701-0.721c0-0.187-0.07-0.347-0.21-0.481C104.398,242.961,104.234,242.895,104.048,242.895"/>
	<path d="M135.772,246.18c-0.029-0.507-0.043-0.975-0.043-1.403v-1.202c0-0.481-0.22-0.721-0.659-0.721
		c-0.087,0-0.395,0.026-0.921,0.08c-0.761,0.054-1.272,0.08-1.535,0.08l-6.846,0.081h-1.711l-6.846-0.081
		c-0.233,0-0.73-0.026-1.49-0.08c-0.47-0.053-0.776-0.08-0.922-0.08c-0.439,0-0.659,0.24-0.659,0.721v1.202
		c0,0.428-0.015,1.002-0.043,1.724c-0.029,0.721-0.074,1.416-0.132,2.083c-0.029,0.641-0.044,0.988-0.044,1.042
		c0,0.401,0.219,0.601,0.658,0.601c0.497,0,0.745-0.2,0.745-0.601c0-1.656,0.3-2.925,0.9-3.807c0.6-0.881,1.514-1.322,2.742-1.322
		h4.212V267.5c-0.937,0-1.77-0.014-2.501-0.041h-0.482c-0.439,0-0.658,0.24-0.658,0.721c0,0.455,0.219,0.682,0.658,0.682
		c0.088,0,0.22-0.014,0.396-0.039c0.379-0.027,0.862-0.061,1.447-0.1c0.585-0.041,1.462-0.061,2.633-0.061h0.526
		c1.17,0,2.048,0.02,2.633,0.061c0.585,0.039,1.067,0.072,1.447,0.1c0.176,0.025,0.308,0.039,0.396,0.039
		c0.439,0,0.658-0.227,0.658-0.682c0-0.48-0.219-0.721-0.658-0.721h-0.438c-0.761,0.027-1.624,0.041-2.589,0.041v-23.003h4.256
		c1.229,0,2.143,0.441,2.742,1.322c0.6,0.882,0.9,2.151,0.9,3.807c0,0.401,0.233,0.601,0.701,0.601s0.702-0.2,0.702-0.601
		c0-0.053-0.015-0.4-0.043-1.042C135.846,247.49,135.802,246.688,135.772,246.18"/>
	<path d="M174.592,244.297h0.498c0.497,0,0.746-0.241,0.746-0.721c0-0.187-0.075-0.347-0.225-0.481
		c-0.148-0.133-0.323-0.2-0.521-0.2c-0.101,0-0.25,0.014-0.448,0.04c-0.432,0.027-0.979,0.06-1.642,0.1
		c-0.664,0.041-1.659,0.061-2.985,0.061h-0.598c-1.326,0-2.322-0.02-2.985-0.061c-0.663-0.04-1.211-0.073-1.642-0.1
		c-0.199-0.026-0.349-0.04-0.448-0.04c-0.497,0-0.746,0.227-0.746,0.682c0,0.48,0.249,0.721,0.746,0.721h0.548
		c0.828-0.026,1.774-0.04,2.836-0.04v10.338H154.49v-10.338c1.062,0,2.007,0.013,2.836,0.04h0.548c0.497,0,0.746-0.241,0.746-0.721
		c0-0.187-0.074-0.347-0.224-0.481c-0.149-0.133-0.323-0.2-0.522-0.2c-0.1,0-0.249,0.014-0.448,0.04
		c-0.431,0.027-0.979,0.06-1.642,0.1c-0.664,0.041-1.659,0.061-2.985,0.061h-0.597c-1.327,0-2.322-0.02-2.985-0.061
		c-0.664-0.04-1.212-0.073-1.642-0.1c-0.199-0.026-0.349-0.04-0.448-0.04c-0.166,0-0.332,0.067-0.498,0.2
		c-0.166,0.134-0.248,0.294-0.248,0.481c0,0.48,0.248,0.721,0.746,0.721h0.547c0.829-0.026,1.774-0.04,2.836-0.04V267.5
		c-1.062,0-2.007-0.014-2.836-0.041h-0.547c-0.498,0-0.746,0.24-0.746,0.723c0,0.453,0.248,0.68,0.746,0.68
		c0.1,0,0.249-0.014,0.448-0.039c0.43-0.027,0.978-0.061,1.642-0.1c0.663-0.041,1.658-0.061,2.985-0.061h0.597
		c1.326,0,2.321,0.02,2.985,0.061c0.663,0.039,1.211,0.072,1.642,0.1c0.199,0.025,0.349,0.039,0.448,0.039
		c0.497,0,0.746-0.227,0.746-0.68c0-0.482-0.249-0.723-0.746-0.723h-0.548c-0.829,0.027-1.774,0.041-2.836,0.041v-11.461h13.235
		V267.5c-1.062,0-2.008-0.014-2.836-0.041h-0.548c-0.497,0-0.746,0.24-0.746,0.723c0,0.453,0.249,0.68,0.746,0.68
		c0.1,0,0.249-0.014,0.448-0.039c0.431-0.027,0.979-0.061,1.642-0.1c0.663-0.041,1.659-0.061,2.985-0.061h0.598
		c1.326,0,2.321,0.02,2.985,0.061c0.663,0.039,1.21,0.072,1.642,0.1c0.198,0.025,0.348,0.039,0.448,0.039
		c0.497,0,0.746-0.227,0.746-0.68c0-0.482-0.249-0.723-0.746-0.723h-0.498c-0.863,0.027-1.841,0.041-2.936,0.041v-23.243
		C172.751,244.257,173.729,244.271,174.592,244.297"/>
	<path d="M211.388,266.178c-0.499,0-0.748,0.227-0.748,0.68c0,0.775-0.5,1.164-1.499,1.164c-0.78,0-1.17-0.521-1.17-1.564
		c0-0.293,0.031-0.787,0.094-1.482c0.094-1.281,0.141-2.338,0.141-3.166c0-1.443-0.585-2.865-1.756-4.268s-2.738-2.277-4.704-2.625
		c0.686-0.106,1.381-0.321,2.083-0.641c0.702-0.321,1.341-0.735,1.919-1.243c0.577-0.507,1.037-1.088,1.382-1.743
		c0.343-0.654,0.515-1.355,0.515-2.104c0-1.843-0.859-3.326-2.575-4.448c-1.717-1.122-4.213-1.683-7.49-1.683h-2.527
		c-1.28,0.027-2.092,0.04-2.435,0.04c-1.249,0-2.185-0.02-2.809-0.061c-0.625-0.04-1.14-0.073-1.544-0.1
		c-0.188-0.026-0.329-0.04-0.422-0.04c-0.157,0-0.312,0.067-0.469,0.201c-0.156,0.134-0.233,0.294-0.233,0.481
		c0,0.481,0.233,0.721,0.702,0.721h0.515c0.779-0.026,1.67-0.04,2.668-0.04V267.5c-0.998,0-1.889-0.014-2.668-0.041h-0.515
		c-0.469,0-0.702,0.24-0.702,0.721c0,0.455,0.233,0.682,0.702,0.682c0.093,0,0.233-0.014,0.422-0.039
		c0.404-0.027,0.919-0.061,1.544-0.1c0.624-0.041,1.56-0.061,2.809-0.061h0.562c1.248,0,2.185,0.02,2.809,0.061
		c0.624,0.039,1.14,0.072,1.546,0.1c0.187,0.025,0.327,0.039,0.421,0.039c0.468,0,0.702-0.227,0.702-0.682
		c0-0.48-0.234-0.721-0.702-0.721h-0.515c-0.78,0.027-1.671,0.041-2.669,0.041v-11.461h3.745c2.153,0,3.651,0.487,4.494,1.463
		c0.843,0.975,1.264,2.41,1.264,4.307c0,2.619,0.358,4.496,1.077,5.631c0.717,1.137,1.98,1.703,3.791,1.703
		c0.812,0,1.514-0.221,2.107-0.662c0.593-0.439,0.889-0.994,0.889-1.662c0-0.16-0.078-0.307-0.233-0.441
		C211.746,266.244,211.575,266.178,211.388,266.178 M197.578,254.596h-2.809v-10.099h2.809c2.278,0,3.831,0.348,4.658,1.042
		c0.827,0.695,1.24,1.911,1.24,3.646c0,1.71-0.484,3.04-1.451,3.988C201.058,254.122,199.575,254.596,197.578,254.596"/>
	<path d="M242.131,246.1c-1.14-1.202-2.458-2.124-3.956-2.765c-1.499-0.641-3.073-0.961-4.721-0.961
		c-1.648,0-3.222,0.32-4.721,0.961c-1.498,0.641-2.816,1.563-3.956,2.765c-1.139,1.202-2.022,2.639-2.652,4.308
		c-0.629,1.67-0.943,3.493-0.943,5.47c0,1.978,0.314,3.802,0.943,5.47c0.63,1.67,1.514,3.105,2.652,4.309
		c1.14,1.201,2.458,2.131,3.956,2.785c1.499,0.654,3.072,0.982,4.721,0.982c1.679,0,3.26-0.328,4.743-0.982s2.794-1.584,3.934-2.785
		c1.138-1.203,2.023-2.639,2.652-4.309c0.629-1.668,0.943-3.492,0.943-5.47c0-1.977-0.314-3.8-0.943-5.47
		C244.154,248.739,243.269,247.302,242.131,246.1 M239.613,265.135c-1.319,1.791-3.372,2.686-6.159,2.686s-4.84-0.895-6.158-2.686
		c-1.32-1.789-1.979-4.875-1.979-9.257c0-4.381,0.658-7.466,1.979-9.257c1.318-1.79,3.371-2.685,6.158-2.685s4.84,0.896,6.159,2.685
		c1.318,1.791,1.978,4.876,1.978,9.257C241.591,260.26,240.932,263.346,239.613,265.135"/>
	<path d="M275.494,245.038c-1.837-1.348-4.451-2.023-7.84-2.023c-0.981,0-2.154,0.014-3.515,0.041
		c-0.603,0.026-1.236,0.04-1.901,0.04c-1.267,0-2.217-0.02-2.851-0.061c-0.634-0.04-1.157-0.073-1.567-0.1
		c-0.191-0.026-0.333-0.041-0.429-0.041c-0.158,0-0.316,0.067-0.476,0.201c-0.158,0.133-0.237,0.294-0.237,0.481
		c0,0.48,0.237,0.721,0.713,0.721h0.522c0.793-0.026,1.695-0.04,2.709-0.04V267.5c-1.014,0-1.916-0.014-2.709-0.041h-0.522
		c-0.476,0-0.713,0.24-0.713,0.721c0,0.455,0.237,0.682,0.713,0.682c0.096,0,0.237-0.014,0.429-0.039
		c0.41-0.027,0.934-0.061,1.567-0.1c0.634-0.041,1.584-0.061,2.851-0.061h0.57c1.267,0,2.216,0.02,2.851,0.061
		c0.633,0.039,1.156,0.072,1.568,0.1c0.189,0.025,0.333,0.039,0.427,0.039c0.476,0,0.714-0.227,0.714-0.682
		c0-0.48-0.238-0.721-0.714-0.721h-0.522c-0.792,0.027-1.694,0.041-2.708,0.041v-9.458h3.23c3.389,0,6.003-0.681,7.84-2.043
		s2.756-3.192,2.756-5.49C278.25,248.211,277.331,246.387,275.494,245.038 M272.644,255.257c-0.95,0.896-2.613,1.343-4.989,1.343
		h-3.23v-12.103h3.23c2.376,0,4.039,0.441,4.989,1.323c0.949,0.881,1.426,2.444,1.426,4.688
		C274.069,252.779,273.593,254.362,272.644,255.257"/>
	<path d="M308.323,246.1c-1.103-1.202-2.38-2.124-3.83-2.765c-1.451-0.641-2.976-0.961-4.571-0.961c-1.597,0-3.12,0.32-4.571,0.961
		s-2.729,1.563-3.831,2.765c-1.104,1.202-1.959,2.639-2.568,4.308c-0.609,1.67-0.914,3.493-0.914,5.47
		c0,1.978,0.305,3.802,0.914,5.47c0.609,1.67,1.465,3.105,2.568,4.309c1.103,1.201,2.38,2.131,3.831,2.785s2.975,0.982,4.571,0.982
		c1.625,0,3.156-0.328,4.593-0.982s2.706-1.584,3.809-2.785c1.104-1.203,1.96-2.639,2.569-4.309c0.609-1.668,0.915-3.492,0.915-5.47
		c0-1.977-0.306-3.8-0.915-5.47C310.283,248.739,309.427,247.302,308.323,246.1 M305.886,265.135
		c-1.277,1.791-3.265,2.686-5.964,2.686s-4.688-0.895-5.964-2.686c-1.277-1.789-1.916-4.875-1.916-9.257
		c0-4.381,0.639-7.466,1.916-9.257c1.276-1.79,3.265-2.685,5.964-2.685s4.687,0.896,5.964,2.685
		c1.277,1.791,1.916,4.876,1.916,9.257C307.802,260.26,307.163,263.346,305.886,265.135"/>
	<path d="M344.234,261.811c-0.526,0-0.789,0.201-0.789,0.602c0,1.658-0.31,2.926-0.929,3.807c-0.618,0.883-1.578,1.322-2.877,1.322
		h-8.352V244.54c0.989,0,1.871,0.014,2.645,0.04h0.511c0.464,0,0.695-0.24,0.695-0.721c0-0.187-0.069-0.347-0.208-0.481
		c-0.14-0.133-0.302-0.2-0.487-0.2c-0.093,0-0.231,0.014-0.418,0.04c-0.401,0.027-0.913,0.061-1.531,0.1
		c-0.619,0.041-1.547,0.06-2.783,0.06h-0.558c-1.237,0-2.166-0.02-2.783-0.06c-0.62-0.04-1.13-0.073-1.531-0.1
		c-0.187-0.026-0.325-0.04-0.418-0.04c-0.155,0-0.31,0.067-0.464,0.2c-0.155,0.134-0.232,0.294-0.232,0.481
		c0,0.481,0.232,0.721,0.696,0.721h0.51c0.773-0.025,1.655-0.04,2.645-0.04v23.241c-0.989,0-1.871-0.012-2.645-0.039h-0.51
		c-0.464,0-0.696,0.24-0.696,0.721c0,0.455,0.232,0.682,0.696,0.682c0.093,0,0.231-0.014,0.418-0.039
		c0.401-0.027,0.911-0.061,1.531-0.102c0.617-0.041,1.546-0.059,2.783-0.059c0.526,0,1.779,0.012,3.759,0.039
		c3.835,0.027,6.682,0.041,8.537,0.041c0.372,0,0.959,0.039,1.764,0.119c0.433,0.027,0.711,0.041,0.835,0.041
		c0.187,0,0.349-0.068,0.487-0.201c0.14-0.133,0.21-0.293,0.21-0.48v-1.242c0-0.428,0.015-1.002,0.046-1.723
		c0.03-0.723,0.076-1.416,0.139-2.086c0.03-0.641,0.047-0.986,0.047-1.041C344.977,262.012,344.729,261.811,344.234,261.811"/>
	<path d="M374.098,246.383c-1.078-1.202-2.325-2.124-3.743-2.765c-1.419-0.641-2.907-0.961-4.466-0.961
		c-1.56,0-3.048,0.32-4.466,0.961c-1.418,0.641-2.666,1.563-3.743,2.765c-1.077,1.202-1.913,2.639-2.509,4.308
		c-0.596,1.67-0.893,3.493-0.893,5.47c0,1.977,0.297,3.802,0.893,5.47c0.596,1.67,1.432,3.105,2.509,4.309
		c1.077,1.201,2.325,2.131,3.743,2.785s2.906,0.982,4.466,0.982c1.588,0,3.084-0.328,4.488-0.982
		c1.402-0.654,2.643-1.584,3.721-2.785c1.077-1.203,1.914-2.639,2.509-4.309c0.596-1.668,0.894-3.493,0.894-5.47
		c0-1.977-0.298-3.8-0.894-5.47C376.012,249.021,375.175,247.585,374.098,246.383 M371.716,265.418
		c-1.248,1.789-3.19,2.686-5.827,2.686s-4.58-0.896-5.826-2.686c-1.248-1.789-1.872-4.875-1.872-9.257
		c0-4.381,0.624-7.467,1.872-9.257c1.246-1.79,3.189-2.685,5.826-2.685s4.579,0.895,5.827,2.685
		c1.247,1.791,1.872,4.876,1.872,9.257C373.588,260.543,372.963,263.629,371.716,265.418"/>
	<path d="M414.92,258.926c-0.09,0-0.225,0.014-0.404,0.041c-0.391,0.025-0.886,0.061-1.485,0.1c-0.6,0.041-1.484,0.061-2.654,0.061
		h-0.585c-1.171,0-2.055-0.02-2.655-0.061c-0.6-0.039-1.095-0.074-1.484-0.1c-0.181-0.027-0.315-0.041-0.405-0.041
		c-0.45,0-0.675,0.24-0.675,0.721c0,0.455,0.225,0.682,0.675,0.682h0.495c0.75-0.025,1.604-0.039,2.564-0.039v0.561
		c0,0.908-0.112,1.783-0.337,2.625c-0.226,0.842-0.601,1.609-1.126,2.305c-0.524,0.695-1.222,1.256-2.092,1.682
		c-0.87,0.428-1.934,0.643-3.194,0.643c-1.32,0-2.482-0.207-3.487-0.621s-1.838-1.062-2.497-1.943
		c-1.44-1.898-2.16-5.023-2.16-9.378s0.72-7.48,2.16-9.377c0.659-0.881,1.492-1.529,2.497-1.943
		c1.005-0.414,2.167-0.622,3.487-0.622c1.08,0,2.114,0.188,3.104,0.562c0.99,0.375,1.875,0.901,2.655,1.583
		c0.779,0.682,1.395,1.49,1.845,2.425c0.45,0.935,0.675,1.938,0.675,3.005c0,0.187,0.045,0.341,0.135,0.46
		c0.091,0.121,0.271,0.181,0.54,0.181c0.24,0,0.412-0.06,0.518-0.181c0.105-0.12,0.158-0.273,0.158-0.46v-8.335
		c0-0.187-0.046-0.34-0.136-0.461c-0.09-0.12-0.285-0.18-0.584-0.18c-0.242,0-0.405,0.067-0.496,0.2
		c-0.09,0.134-0.135,0.294-0.135,0.481c0,0.4-0.098,0.809-0.293,1.222c-0.195,0.415-0.412,0.729-0.651,0.942
		c-1.051-0.908-2.184-1.636-3.397-2.184c-1.215-0.547-2.647-0.821-4.298-0.821c-1.619,0-3.149,0.321-4.59,0.961
		c-1.439,0.642-2.715,1.563-3.824,2.766s-1.973,2.638-2.587,4.308c-0.615,1.67-0.922,3.493-0.922,5.47c0,1.978,0.307,3.8,0.922,5.47
		c0.614,1.67,1.469,3.105,2.564,4.309c1.095,1.201,2.369,2.131,3.825,2.785c1.454,0.654,2.992,0.982,4.611,0.982
		c3.09,0,5.64-0.803,7.649-2.406c2.01-1.602,3.015-3.807,3.015-6.611v-0.4c0.96,0,1.814,0.014,2.565,0.039h0.494
		c0.45,0,0.676-0.227,0.676-0.682C415.596,259.166,415.37,258.926,414.92,258.926"/>
	<path d="M435.779,244.317h0.515c0.469,0,0.703-0.24,0.703-0.721c0-0.187-0.07-0.347-0.211-0.481c-0.141-0.133-0.305-0.2-0.492-0.2
		c-0.093,0-0.233,0.014-0.421,0.04c-0.405,0.027-0.921,0.06-1.544,0.1c-0.625,0.041-1.561,0.061-2.809,0.061h-0.562
		c-1.249,0-2.185-0.02-2.809-0.061c-0.625-0.04-1.14-0.073-1.545-0.1c-0.187-0.026-0.327-0.04-0.421-0.04
		c-0.157,0-0.312,0.067-0.469,0.2c-0.156,0.134-0.233,0.294-0.233,0.481c0,0.48,0.233,0.721,0.702,0.721h0.515
		c0.779-0.026,1.669-0.04,2.667-0.04v23.242c-0.998,0-1.888-0.014-2.667-0.041h-0.515c-0.469,0-0.702,0.242-0.702,0.723
		c0,0.455,0.233,0.682,0.702,0.682c0.094,0,0.234-0.016,0.421-0.041c0.405-0.027,0.92-0.061,1.545-0.1
		c0.624-0.041,1.56-0.061,2.809-0.061h0.562c1.248,0,2.184,0.02,2.809,0.061c0.623,0.039,1.139,0.072,1.544,0.1
		c0.188,0.025,0.328,0.041,0.421,0.041c0.469,0,0.703-0.227,0.703-0.682c0-0.48-0.234-0.723-0.703-0.723h-0.515
		c-0.78,0.027-1.67,0.041-2.668,0.041v-23.242C434.109,244.277,434.999,244.291,435.779,244.317"/>
	<path d="M470.277,261.832c-0.539,0-0.809,0.199-0.809,0.6c0,1.658-0.316,2.926-0.951,3.809c-0.634,0.881-1.615,1.32-2.946,1.32
		h-8.939v-11.22h4.659c1.681,0,2.521,1.029,2.521,3.087c0,0.4,0.22,0.6,0.664,0.6c0.413,0,0.619-0.199,0.619-0.6v-0.402
		c-0.064-0.881-0.096-2.016-0.096-3.405c0-1.389,0.031-2.525,0.096-3.406v-0.401c0-0.4-0.206-0.601-0.619-0.601
		c-0.444,0-0.664,0.201-0.664,0.601c0,2.058-0.841,3.086-2.521,3.086h-4.659V244.8h7.75c1.332,0,2.313,0.441,2.948,1.322
		c0.634,0.882,0.95,2.151,0.95,3.807c0,0.401,0.27,0.601,0.81,0.601c0.505,0,0.76-0.2,0.76-0.601c0-0.054-0.017-0.401-0.047-1.042
		c-0.064-1.096-0.112-1.897-0.144-2.404s-0.047-0.975-0.047-1.403v-1.202c0-0.481-0.238-0.721-0.714-0.721
		c-0.095,0-0.428,0.026-0.998,0.08c-0.824,0.054-1.379,0.08-1.664,0.08l-4.945,0.04c-3.961,0.026-6.244,0.04-6.847,0.04
		c-1.267,0-2.218-0.02-2.852-0.06c-0.635-0.04-1.158-0.073-1.569-0.1c-0.19-0.026-0.333-0.04-0.428-0.04
		c-0.159,0-0.317,0.067-0.476,0.2c-0.158,0.134-0.237,0.294-0.237,0.481c0,0.481,0.237,0.721,0.713,0.721h0.522
		c0.793-0.026,1.695-0.04,2.71-0.04v23.243c-1.015,0-1.917-0.014-2.71-0.041h-0.522c-0.476,0-0.713,0.24-0.713,0.721
		c0,0.455,0.237,0.682,0.713,0.682c0.095,0,0.237-0.014,0.428-0.039c0.411-0.027,0.935-0.061,1.569-0.1
		c0.634-0.041,1.585-0.061,2.852-0.061c0.603,0,2.774,0.014,6.515,0.041c3.708,0.025,5.864,0.039,6.466,0.039
		c0.285,0,0.84,0.025,1.665,0.08c0.569,0.053,0.902,0.08,0.998,0.08c0.189,0,0.356-0.066,0.499-0.199
		c0.143-0.135,0.214-0.295,0.214-0.482v-1.242c0-0.428,0.016-1.002,0.048-1.723c0.031-0.723,0.078-1.416,0.143-2.084
		c0.03-0.641,0.047-0.988,0.047-1.043C471.038,262.031,470.784,261.832,470.277,261.832"/>
</g>
</svg>
